<?xml version="1.0" encoding="utf-8"?>
<svg version="1.1" xmlns:xlink="http://www.w3.org/1999/xlink" width="11px" height="11px" xmlns="http://www.w3.org/2000/svg">
  <g transform="matrix(1 0 0 1 -523 -67 )">
    <path d="M 3.9296875 4.189453125  C 3.9765625 4.232421875  4 4.287326388888888  4 4.354166666666667  L 4 8.479166666666668  C 4 8.546006944444445  3.9765625 8.600911458333332  3.9296875 8.643880208333332  C 3.8828125 8.686848958333332  3.8229166666666674 8.708333333333332  3.7499999999999996 8.708333333333332  L 3.25 8.708333333333332  C 3.177083333333334 8.708333333333332  3.117187500000001 8.686848958333332  3.0703125 8.643880208333332  C 3.0234375 8.600911458333332  3 8.546006944444445  3 8.479166666666668  L 3 4.354166666666667  C 3 4.287326388888888  3.0234375 4.232421875  3.0703125 4.189453125  C 3.117187500000001 4.146484375  3.177083333333334 4.125  3.25 4.125  L 3.7499999999999996 4.125  C 3.8229166666666674 4.125  3.8828125 4.146484375  3.9296875 4.189453125  Z M 5.9296875 4.189453125  C 5.9765625 4.232421875  6 4.287326388888888  6 4.354166666666667  L 6 8.479166666666668  C 6 8.546006944444445  5.9765625 8.600911458333332  5.9296875 8.643880208333332  C 5.8828125 8.686848958333332  5.822916666666667 8.708333333333332  5.75 8.708333333333332  L 5.25 8.708333333333332  C 5.177083333333334 8.708333333333332  5.1171875 8.686848958333332  5.0703125 8.643880208333332  C 5.0234375 8.600911458333332  5 8.546006944444445  5 8.479166666666668  L 5 4.354166666666667  C 5 4.287326388888888  5.0234375 4.232421875  5.0703125 4.189453125  C 5.1171875 4.146484375  5.177083333333334 4.125  5.25 4.125  L 5.75 4.125  C 5.822916666666667 4.125  5.8828125 4.146484375  5.9296875 4.189453125  Z M 7.929687499999999 4.189453125  C 7.9765625 4.232421875  8 4.287326388888888  8 4.354166666666667  L 8 8.479166666666668  C 8 8.546006944444445  7.9765625 8.600911458333332  7.929687499999999 8.643880208333332  C 7.882812500000001 8.686848958333332  7.822916666666667 8.708333333333332  7.75 8.708333333333332  L 7.25 8.708333333333332  C 7.177083333333333 8.708333333333332  7.1171875 8.686848958333332  7.070312499999999 8.643880208333332  C 7.023437500000001 8.600911458333332  7 8.546006944444445  7 8.479166666666668  L 7 4.354166666666667  C 7 4.287326388888888  7.023437500000001 4.232421875  7.070312499999999 4.189453125  C 7.1171875 4.146484375  7.177083333333333 4.125  7.25 4.125  L 7.75 4.125  C 7.822916666666667 4.125  7.882812500000001 4.146484375  7.929687499999999 4.189453125  Z M 8.9453125 9.8291015625  C 8.981770833333334 9.740776909722223  9 9.644097222222223  9 9.5390625  L 9 2.75  L 2 2.75  L 2 9.5390625  C 2 9.644097222222223  2.018229166666667 9.740776909722223  2.0546875 9.8291015625  C 2.0911458333333335 9.917426215277777  2.12890625 9.981879340277777  2.16796875 10.0224609375  C 2.20703125 10.063042534722223  2.234375 10.083333333333332  2.25 10.083333333333332  L 8.75 10.083333333333332  C 8.765625 10.083333333333332  8.79296875 10.063042534722223  8.83203125 10.0224609375  C 8.87109375 9.981879340277777  8.908854166666668 9.917426215277777  8.9453125 9.8291015625  Z M 4.1328125 0.9954427083333329  L 3.7499999999999996 1.833333333333333  L 7.25 1.833333333333333  L 6.875 0.9954427083333329  C 6.838541666666668 0.9524739583333329  6.794270833333334 0.9262152777777772  6.7421875 0.9166666666666671  L 4.265625 0.9166666666666671  C 4.213541666666667 0.9262152777777772  4.169270833333334 0.9524739583333329  4.1328125 0.9954427083333329  Z M 10.9296875 1.897786458333333  C 10.9765625 1.940755208333333  11 1.9956597222222214  11 2.0625  L 11 2.520833333333333  C 11 2.5876736111111103  10.9765625 2.642578125  10.9296875 2.685546875  C 10.8828125 2.728515625  10.822916666666668 2.75  10.75 2.75  L 10 2.75  L 10 9.5390625  C 10 9.93532986111111  9.877604166666668 10.277886284722223  9.6328125 10.566731770833332  C 9.388020833333334 10.855577256944445  9.09375 11  8.75 11  L 2.25 11  C 1.9062500000000002 11  1.611979166666667 10.8603515625  1.3671875 10.5810546875  C 1.1223958333333335 10.3017578125  1 9.963975694444445  1 9.567708333333332  L 1 2.75  L 0.25 2.75  C 0.17708333333333331 2.75  0.11718750000000001 2.728515625  0.0703125 2.685546875  C 0.0234375 2.642578125  0 2.5876736111111103  0 2.520833333333333  L 0 2.0625  C 0 1.9956597222222214  0.0234375 1.940755208333333  0.0703125 1.897786458333333  C 0.11718750000000001 1.854817708333333  0.17708333333333331 1.833333333333333  0.25 1.833333333333333  L 2.6640625 1.833333333333333  L 3.2109375000000004 0.6373697916666671  C 3.289062500000001 0.46072048611111016  3.4296875000000004 0.31032986111111016  3.6328125 0.18619791666666707  C 3.8359375000000004 0.062065972222221544  4.041666666666667 0  4.25 0  L 6.75 0  C 6.958333333333335 0  7.1640625 0.062065972222221544  7.367187500000001 0.18619791666666707  C 7.5703125 0.31032986111111016  7.710937500000001 0.46072048611111016  7.7890625 0.6373697916666671  L 8.3359375 1.833333333333333  L 10.75 1.833333333333333  C 10.822916666666668 1.833333333333333  10.8828125 1.854817708333333  10.9296875 1.897786458333333  Z " fill-rule="nonzero" fill="#e35d5d" stroke="none" transform="matrix(1 0 0 1 523 67 )" />
  </g>
</svg>