<?xml version="1.0" encoding="utf-8"?>
<svg version="1.1" xmlns:xlink="http://www.w3.org/1999/xlink" width="13px" height="13px" xmlns="http://www.w3.org/2000/svg">
  <g transform="matrix(1 0 0 1 -548 -66 )">
    <path d="M 8.031901041666666 8.031901041666668  C 8.455078125 7.608723958333332  8.666666666666666 7.098090277777778  8.666666666666666 6.5  C 8.666666666666666 5.901909722222221  8.455078125 5.391276041666666  8.031901041666666 4.968098958333334  C 7.608723958333334 4.544921875  7.098090277777779 4.333333333333334  6.5 4.333333333333334  C 5.901909722222222 4.333333333333334  5.391276041666667 4.544921875  4.968098958333333 4.968098958333334  C 4.544921875 5.391276041666666  4.333333333333333 5.901909722222221  4.333333333333333 6.5  C 4.333333333333333 7.098090277777778  4.544921875 7.608723958333332  4.968098958333333 8.031901041666668  C 5.391276041666667 8.455078125  5.901909722222222 8.666666666666668  6.5 8.666666666666668  C 7.098090277777779 8.666666666666668  7.608723958333334 8.455078125  8.031901041666666 8.031901041666668  Z M 12.932291666666666 5.378580729166666  C 12.977430555555555 5.437825520833334  13 5.504123263888888  13 5.577473958333334  L 13 7.456380208333332  C 13 7.524088541666668  12.977430555555555 7.588975694444445  12.932291666666666 7.651041666666668  C 12.887152777777779 7.7131076388888875  12.830729166666666 7.74978298611111  12.763020833333334 7.761067708333332  L 11.197265625 7.998046875  C 11.09006076388889 8.302734375  10.980034722222223 8.559461805555555  10.8671875 8.768229166666668  C 11.06467013888889 9.050347222222223  11.366536458333334 9.439670138888888  11.772786458333334 9.936197916666666  C 11.829210069444445 10.00390625  11.857421875 10.07443576388889  11.857421875 10.147786458333334  C 11.857421875 10.221137152777779  11.83203125 10.286024305555555  11.78125 10.342447916666666  C 11.62890625 10.551215277777779  11.349609375 10.855902777777779  10.943359375 11.256510416666666  C 10.537109375 11.657118055555555  10.271918402777779 11.857421875  10.147786458333334 11.857421875  C 10.080078125 11.857421875  10.006727430555557 11.83203125  9.927734375 11.78125  L 8.759765625 10.8671875  C 8.51150173611111 10.996961805555555  8.254774305555557 11.104166666666666  7.989583333333334 11.188802083333334  C 7.899305555555556 11.956163194444445  7.817491319444445 12.480902777777779  7.744140625 12.763020833333334  C 7.704644097222222 12.921006944444445  7.603081597222222 13  7.439453125 13  L 5.560546875 13  C 5.481553819444445 13  5.412434895833333 12.976019965277779  5.353190104166667 12.928059895833334  C 5.2939453125 12.88009982638889  5.261501736111112 12.819444444444445  5.255859375 12.74609375  L 5.018880208333333 11.188802083333334  C 4.742404513888889 11.098524305555555  4.488498263888889 10.994140625  4.257161458333333 10.875651041666666  L 3.0638020833333335 11.78125  C 3.0073784722222223 11.83203125  2.9368489583333335 11.857421875  2.8522135416666665 11.857421875  C 2.773220486111111 11.857421875  2.7026909722222223 11.82638888888889  2.640625 11.764322916666666  C 1.9296875 11.12109375  1.4641927083333333 10.647135416666666  1.244140625 10.342447916666666  C 1.2046440972222223 10.286024305555555  1.1848958333333333 10.221137152777779  1.1848958333333333 10.147786458333334  C 1.1848958333333333 10.080078125  1.207465277777778 10.015190972222221  1.2526041666666667 9.953125  C 1.3372395833333333 9.834635416666666  1.4811197916666667 9.647026909722223  1.6842447916666665 9.390299479166668  C 1.8873697916666665 9.13357204861111  2.0397135416666665 8.934678819444443  2.1412760416666665 8.793619791666668  C 1.9889322916666665 8.51150173611111  1.873263888888889 8.23220486111111  1.7942708333333335 7.955729166666668  L 0.24544270833333331 7.727213541666668  C 0.1720920138888889 7.715928819444445  0.11284722222222222 7.6806640625  0.06770833333333333 7.621419270833332  C 0.022569444444444444 7.562174479166668  0 7.49587673611111  0 7.422526041666668  L 0 5.543619791666666  C 0 5.475911458333334  0.022569444444444444 5.411024305555555  0.06770833333333333 5.348958333333334  C 0.11284722222222222 5.286892361111112  0.1664496527777778 5.250217013888888  0.228515625 5.238932291666666  L 1.802734375 5.001953125  C 1.8817274305555556 4.742404513888888  1.991753472222222 4.482855902777778  2.1328125 4.223307291666666  C 1.9071180555555556 3.901692708333334  1.6052517361111112 3.512369791666666  1.2272135416666667 3.055338541666666  C 1.1707899305555556 2.987630208333334  1.142578125 2.919921875  1.142578125 2.852213541666666  C 1.142578125 2.795789930555555  1.16796875 2.730902777777776  1.21875 2.657552083333334  C 1.3654513888888888 2.454427083333334  1.6433376736111112 2.15115017361111  2.0524088541666665 1.747721354166666  C 2.4614800347222223 1.344292534722221  2.7280815972222223 1.142578125  2.8522135416666665 1.142578125  C 2.925564236111111 1.142578125  2.998914930555556 1.170789930555555  3.072265625 1.227213541666666  L 4.240234375 2.1328125  C 4.488498263888889 2.0030381944444438  4.745225694444445 1.895833333333334  5.010416666666667 1.811197916666666  C 5.100694444444445 1.043836805555555  5.182508680555555 0.5190972222222211  5.255859375 0.23697916666666619  C 5.295355902777779 0.07899305555555491  5.396918402777779 0  5.560546875 0  L 7.439453125 0  C 7.518446180555556 0  7.587565104166666 0.0239800347222211  7.646809895833334 0.07194010416666619  C 7.7060546875 0.11990017361110983  7.738498263888888 0.18055555555555491  7.744140625 0.25390625  L 7.981119791666666 1.811197916666666  C 8.25759548611111 1.9014756944444438  8.51150173611111 2.005859375  8.742838541666666 2.124348958333334  L 9.944661458333334 1.21875  C 9.995442708333334 1.16796875  10.063151041666666 1.142578125  10.147786458333334 1.142578125  C 10.221137152777779 1.142578125  10.291666666666666 1.170789930555555  10.359375 1.227213541666666  C 11.087239583333334 1.8986545138888888  11.552734375 2.378255208333334  11.755859375 2.666015625  C 11.795355902777779 2.711154513888889  11.815104166666666 2.77322048611111  11.815104166666666 2.852213541666666  C 11.815104166666666 2.919921875  11.792534722222223 2.984809027777776  11.747395833333334 3.046875  C 11.662760416666666 3.165364583333334  11.518880208333334 3.352973090277776  11.315755208333334 3.609700520833334  C 11.112630208333334 3.866427951388889  10.960286458333334 4.065321180555555  10.858723958333334 4.206380208333334  C 11.005425347222223 4.488498263888888  11.12109375 4.764973958333332  11.205729166666666 5.035807291666666  L 12.754557291666666 5.272786458333334  C 12.82790798611111 5.284071180555555  12.887152777777779 5.319335937499998  12.932291666666666 5.378580729166666  Z " fill-rule="nonzero" fill="#0dbecc" stroke="none" transform="matrix(1 0 0 1 548 66 )" />
  </g>
</svg>