<?xml version="1.0" encoding="utf-8"?>
<svg version="1.1" xmlns:xlink="http://www.w3.org/1999/xlink" width="11px" height="10px" xmlns="http://www.w3.org/2000/svg">
  <g transform="matrix(1 0 0 1 -575 -67 )">
    <path d="M 4.334114583333333 4.546274038461538  C 4.656857638888889 4.207732371794871  5.045486111111112 4.038461538461537  5.5 4.038461538461538  C 5.95451388888889 4.038461538461537  6.343142361111112 4.207732371794871  6.665885416666667 4.546274038461538  C 6.988628472222223 4.884815705128204  7.15 5.292467948717948  7.15 5.769230769230768  C 7.15 6.245993589743589  6.988628472222223 6.653645833333332  6.665885416666667 6.9921875  C 6.343142361111112 7.330729166666666  5.95451388888889 7.5  5.5 7.5  C 5.045486111111112 7.5  4.656857638888889 7.330729166666666  4.334114583333333 6.9921875  C 4.011371527777778 6.653645833333332  3.8499999999999996 6.245993589743589  3.8499999999999996 5.769230769230768  C 3.8499999999999996 5.292467948717948  4.011371527777778 4.884815705128204  4.334114583333333 4.546274038461538  Z M 8.25 1.5384615384615385  L 9.533333333333333 1.5384615384615385  C 9.938194444444445 1.5384615384615385  10.283854166666668 1.688701923076923  10.5703125 1.9891826923076927  C 10.856770833333334 2.2896634615384617  11.000000000000002 2.6522435897435894  11 3.076923076923077  L 11 8.461538461538462  C 11.000000000000002 8.886217948717949  10.856770833333334 9.248798076923077  10.5703125 9.549278846153847  C 10.283854166666668 9.849759615384615  9.938194444444445 10  9.533333333333333 10  L 1.4666666666666666 10  C 1.0618055555555557 10  0.7161458333333334 9.849759615384615  0.4296875 9.549278846153847  C 0.14322916666666669 9.248798076923077  0 8.886217948717949  0 8.461538461538462  L 0 3.076923076923077  C 0 2.6522435897435894  0.14322916666666669 2.2896634615384617  0.4296875 1.9891826923076927  C 0.7161458333333334 1.688701923076923  1.0618055555555557 1.5384615384615385  1.4666666666666666 1.5384615384615385  L 2.75 1.5384615384615385  L 3.0421875 0.7211538461538458  C 3.1147569444444447 0.5248397435897434  3.247482638888889 0.3555689102564097  3.4403645833333334 0.2133413461538458  C 3.6332465277777786 0.07111378205128305  3.830902777777778 0  4.033333333333333 0  L 6.966666666666667 0  C 7.169097222222223 0  7.366753472222223 0.07111378205128305  7.559635416666667 0.2133413461538458  C 7.752517361111112 0.3555689102564097  7.885243055555556 0.5248397435897434  7.957812499999999 0.7211538461538458  L 8.25 1.5384615384615385  Z M 3.68671875 7.671274038461538  C 4.188975694444444 8.198116987179487  4.793402777777779 8.461538461538462  5.5 8.461538461538462  C 6.206597222222223 8.461538461538462  6.811024305555556 8.198116987179487  7.313281249999999 7.671274038461538  C 7.815538194444445 7.144431089743589  8.066666666666666 6.510416666666666  8.066666666666666 5.769230769230768  C 8.066666666666666 5.028044871794872  7.815538194444445 4.394030448717948  7.313281249999999 3.8671875  C 6.811024305555556 3.3403445512820507  6.206597222222223 3.076923076923077  5.5 3.076923076923077  C 4.793402777777779 3.076923076923077  4.188975694444444 3.3403445512820507  3.68671875 3.8671875  C 3.184461805555556 4.394030448717948  2.933333333333333 5.028044871794872  2.933333333333333 5.769230769230768  C 2.933333333333333 6.510416666666666  3.184461805555556 7.144431089743589  3.68671875 7.671274038461538  Z " fill-rule="nonzero" fill="#dbd9d9" stroke="none" transform="matrix(1 0 0 1 575 67 )" />
  </g>
</svg>