<?xml version="1.0" encoding="utf-8"?>
<svg version="1.1" xmlns:xlink="http://www.w3.org/1999/xlink" width="11px" height="11px" xmlns="http://www.w3.org/2000/svg">
  <g transform="matrix(1 0 0 1 -497 -67 )">
    <path d="M 0.9166666666666666 4.583333333333334  L 4.583333333333334 4.583343610100959  L 4.583333333333334 0.9166666666666666  C 4.583333333333334 0.40333333333333127  4.986666666666716 0  5.5 0  C 6.013333333333283 0  6.416666666666667 0.40333333333333127  6.416666666666667 0.9166666666666666  L 6.416666666671252 4.583333333333334  L 10.083333333333332 4.583333333333334  C 10.596666666666618 4.583333333333334  11 4.986666666666665  11 5.5  C 11 6.013333333333335  10.596666666666618 6.416666666666667  10.083333333333332 6.416666666666667  L 6.416666666666667 6.416656389899042  L 6.416666666666667 10.083333333333332  C 6.416666666666667 10.596666666666668  6.013333333333283 11  5.5 11  C 4.986666666666716 11  4.583333333333334 10.596666666666668  4.583333333333334 10.083333333333332  L 4.583333333328747 6.416666666666667  L 0.9166666666666666 6.416666666666667  C 0.40333333333338334 6.416666666666667  0 6.013333333333335  0 5.5  C 0 4.986666666666665  0.40333333333338334 4.583333333333334  0.9166666666666666 4.583333333333334  Z " fill-rule="nonzero" fill="#0dbecc" stroke="none" transform="matrix(1 0 0 1 497 67 )" />
  </g>
</svg>