<?xml version="1.0" encoding="utf-8"?>
<!-- Generator: Adobe Illustrator 24.0.0, SVG Export Plug-In . SVG Version: 6.00 Build 0)  -->
<svg version="1.1" id="图层_1" xmlns="http://www.w3.org/2000/svg" xmlns:xlink="http://www.w3.org/1999/xlink" x="0px" y="0px"
	 viewBox="0 0 256 256" style="enable-background:new 0 0 256 256;" xml:space="preserve">
<style type="text/css">
	.st0{display:none;}
	.st1{display:inline;fill:#5E5E5E;}
	.st2{display:inline;fill:#878787;}
	.st3{fill:#878787;}
</style>
<g class="st0">
	<rect x="6" y="5.1" class="st1" width="50.3" height="50.3"/>
	<rect x="6" y="70" class="st1" width="50.3" height="50.3"/>
	<rect x="6" y="134.9" class="st1" width="50.3" height="50.3"/>
	<rect x="6" y="199.7" class="st1" width="50.3" height="50.3"/>
	<rect x="134.8" y="5.1" class="st1" width="50.3" height="50.3"/>
	<rect x="134.8" y="134.9" class="st1" width="50.3" height="50.3"/>
	<rect x="199.1" y="5.1" class="st1" width="50.3" height="50.3"/>
	<rect x="199.1" y="134.9" class="st1" width="50.3" height="50.3"/>
	<rect x="199.1" y="199.7" class="st1" width="50.3" height="50.3"/>
	<rect x="70.4" y="70" class="st1" width="50.3" height="50.3"/>
	<rect x="70.4" y="134.9" class="st1" width="50.3" height="50.3"/>
	<rect x="70.4" y="199.7" class="st1" width="50.3" height="50.3"/>
</g>
<g class="st0">
	<path class="st2" d="M128,101.1c-15.1,0-27.4,12.3-27.4,27.4c0,15.1,12.3,27.4,27.4,27.4s27.4-12.3,27.4-27.4
		C155.4,113.3,143.2,101.1,128,101.1z M128,145.2c-9.2,0-16.7-7.5-16.7-16.7c0-9.2,7.5-16.7,16.7-16.7s16.7,7.5,16.7,16.7
		C144.8,137.7,137.3,145.2,128,145.2z"/>
	<path class="st2" d="M238.2,184.4c8.5-16.8,13.4-35.8,13.4-55.9C251.5,60.3,196.2,4.9,128,4.9S4.5,60.3,4.5,128.5S59.8,252,128,252
		C176.1,252,217.7,224.5,238.2,184.4L238.2,184.4L238.2,184.4z M240.3,128.5c0,15.8-3.3,30.9-9.2,44.5l-14-22.6
		c1.7-7,2.7-14.4,2.7-22c0-43.8-30.8-80.5-71.9-89.6l-14-22.5C193.2,19.4,240.3,68.4,240.3,128.5z M61.8,172.3
		c-4.4-6.7-7.8-14-10.1-21.9l62.1-100c4.6-0.8,9.4-1.3,14.3-1.3c5,0,9.8,0.5,14.5,1.3l61.9,99.8c-2.3,7.9-5.7,15.4-10.1,22.1H61.8z
		 M184.3,184.5c-14.4,14.5-34.3,23.4-56.3,23.4s-41.9-9-56.3-23.4H184.3z M47.4,172.3h-9.2l5.2-8.4
		C44.6,166.7,45.9,169.5,47.4,172.3z M48.6,128.5c0-33.4,20.7-62,49.9-73.7l-49.6,80C48.7,132.7,48.6,130.6,48.6,128.5z M128.1,27.2
		l6,9.7c-2-0.1-4.1-0.2-6.1-0.2c-2,0-4,0.1-5.9,0.2L128.1,27.2z M207.2,134.4l-49.4-79.6c29.1,11.8,49.6,40.3,49.6,73.6
		C207.4,130.5,207.3,132.5,207.2,134.4z M212.8,163.7l5.3,8.6h-9.4C210.2,169.5,211.5,166.6,212.8,163.7z M122.3,16.3l-14,22.5
		c-41.2,9-72.1,45.7-72.1,89.6c0,7.7,0.9,15.1,2.7,22.2l-14,22.5c-6-13.7-9.3-28.8-9.3-44.7C15.7,68.4,63,19.3,122.3,16.3z
		 M128,240.7c-41.6,0-77.9-22.6-97.3-56.3h24.7c16.8,21.7,43.1,35.8,72.7,35.8s55.9-14,72.7-35.8h24.7
		C206,218.1,169.6,240.7,128,240.7z"/>
</g>
<g class="st0">
	<polygon class="st2" points="176.1,70.1 111,5.1 110.9,5.2 110.7,5 45.4,70.3 59.5,84.4 101.2,42.7 101.2,243 121.1,243 
		121.1,43.4 162,84.2 	"/>
	<polygon class="st2" points="187.4,212.8 252.4,147.8 252.3,147.7 252.5,147.5 187.2,82.2 173.1,96.3 214.8,138 14.5,138 
		14.5,157.9 214.1,157.9 173.3,198.8 	"/>
</g>
<g>
	<polygon class="st3" points="207.8,30.7 200.5,38 200.2,37.8 140.2,97.7 157.4,115 224.1,48.3 224.1,117.7 248,117.7 248,7.1 
		247.9,7.1 247.9,6.8 136.9,6.8 136.9,30.7 	"/>
	<polygon class="st3" points="30.2,46.3 99.3,115.3 116.4,98.2 56.6,38.5 56.4,38.7 47.7,29.9 117.1,29.9 117.1,6 6.5,6 6.5,6.1 
		6.2,6.1 6.2,117.2 30.2,117.2 	"/>
	<polygon class="st3" points="226.9,137.8 226.9,208.7 157.8,139.7 140.7,156.8 200.4,216.5 200.6,216.3 209.4,225.1 139.9,225.1 
		139.9,249 250.5,249 250.5,248.9 250.8,248.9 250.8,137.8 	"/>
	<polygon class="st3" points="54.2,217.7 54.4,217.9 116,156.4 98.8,139.2 30.5,207.4 30.5,138 6.6,138 6.6,248.6 6.7,248.6 
		6.7,248.9 117.8,248.9 117.8,225 46.8,225 	"/>
</g>
</svg>
