<?xml version="1.0" standalone="no"?><!DOCTYPE svg PUBLIC "-//W3C//DTD SVG 1.1//EN" "http://www.w3.org/Graphics/SVG/1.1/DTD/svg11.dtd"><svg t="1711072762957" class="icon" viewBox="0 0 1089 1024" version="1.1" xmlns="http://www.w3.org/2000/svg" p-id="11357" xmlns:xlink="http://www.w3.org/1999/xlink" width="272.25" height="256"><path d="M864.163086 675.878885l-55.154992-31.926451 47.582692-27.526332c16.884181-9.721195 22.61457-31.210153 12.893375-48.094334-9.721195-16.884181-31.312481-22.716898-48.094334-12.893375l-82.88598 47.787349-149.297092-86.160488 151.343659-87.388428 80.737084 46.661737c5.525732 3.172179 11.563106 4.604777 17.60048 4.604777 12.177076 0 24.047167-6.242031 30.596183-17.498151 9.721195-16.884181 3.888478-38.475467-12.893375-48.196662l-45.638453-26.298391 51.880484-29.982212c16.884181-9.721195 22.61457-31.210153 12.893375-48.196662-9.721195-16.884181-31.312481-22.61457-48.094334-12.995703l-51.880484 29.982212 0-52.494454c0-19.44239-15.758569-35.200959-35.200959-35.200959l0 0c-19.44239 0-35.200959 15.860897-35.200959 35.200959l0 93.221145-149.297092 86.160488L556.052363 282.52863l80.737084-46.661737c16.781853-9.721195 22.61457-31.210153 12.893375-48.094334-9.721195-16.884181-31.312481-22.716898-48.094334-12.893375l-45.536125 26.298391 0-61.397022c0-19.44239-15.758569-35.200959-35.200959-35.200959-19.44239 0-35.200959 15.758569-35.200959 35.200959l0 61.294694-45.433796-26.196063c-16.986509-9.823524-38.373139-3.990806-48.094334 12.893375-9.721195 16.884181-3.990806 38.373139 12.893375 48.094334l80.737084 46.661737 0 174.776856-149.194764-86.160488 0-95.677026c0-19.44239-15.860897-35.200959-35.200959-35.200959-19.44239 0-35.200959 15.758569-35.200959 35.200959l0 54.950335-54.029379-31.210153c-16.884181-9.721195-38.373139-3.888478-48.094334 12.893375-9.721195 16.884181-3.990806 38.373139 12.893375 48.094334l51.880484 29.982212L185.21435 415.350854c-16.884181 9.721195-22.61457 31.210153-12.893375 48.094334 6.549016 11.358449 18.419107 17.60048 30.596183 17.60048 5.935045 0 11.972419-1.534926 17.60048-4.707105l78.588188-45.331468 149.194764 86.160488-147.148196 84.932547-80.737084-46.559408c-16.884181-9.823524-38.475467-3.990806-48.094334 12.893375-9.721195 16.884181-3.990806 38.373139 12.893375 48.094334l45.536125 26.298391-55.25732 31.926451c-16.884181 9.721195-22.61457 31.312481-12.893375 48.196662 6.549016 11.358449 18.419107 17.60048 30.596183 17.60048 5.935045 0 12.074748-1.534926 17.60048-4.604777l55.25732-31.926451 0 52.494454c0 19.44239 15.758569 35.200959 35.200959 35.200959 19.44239 0 35.200959-15.758569 35.200959-35.200959l0-93.221145L485.650445 576.927351l0 172.320975L404.913361 795.910063c-16.884181 9.721195-22.61457 31.312481-12.893375 48.196662 6.549016 11.358449 18.316778 17.60048 30.493854 17.60048 5.935045 0 12.074748-1.534926 17.60048-4.707105l45.536125-26.298391 0 62.317977c0 19.44239 15.758569 35.200959 35.200959 35.200959 19.44239 0 35.200959-15.758569 35.200959-35.200959L556.052363 830.701709l45.536125 26.298391c16.781853 9.721195 38.373139 3.888478 48.094334-12.893375 9.721195-16.884181 3.888478-38.475467-12.893375-48.196662l-80.737084-46.661737 0-169.865094 149.297092 86.160488 0 90.765264c0 19.44239 15.758569 35.200959 35.200959 35.200959l0 0c19.44239 0 35.200959-15.758569 35.200959-35.200959l0-50.140901 53.108424 30.698511c5.525732 3.172179 11.563106 4.707105 17.60048 4.707105 12.177076 0 24.047167-6.344359 30.596183-17.60048C886.777656 707.191366 880.944939 685.702408 864.163086 675.878885L864.163086 675.878885zM864.163086 675.878885" p-id="11358" fill="#484848"></path></svg>