<?xml version="1.0" standalone="no"?><!DOCTYPE svg PUBLIC "-//W3C//DTD SVG 1.1//EN" "http://www.w3.org/Graphics/SVG/1.1/DTD/svg11.dtd"><svg t="1711417600442" class="icon" viewBox="0 0 1132 1024" version="1.1" xmlns="http://www.w3.org/2000/svg" p-id="8079" width="283" height="256" xmlns:xlink="http://www.w3.org/1999/xlink"><path d="M776.838737 291.947789c-196.042105 0-355.328 160.444632-355.328 357.591579 0 197.200842 159.420632 357.618526 355.328 357.618527 196.042105 0 355.328-160.417684 355.328-357.591579 0.134737-197.066105-159.420632-357.591579-355.328-357.591579z m0 627.065264c-148.587789 0-269.473684-120.885895-269.473684-269.473685 0-148.533895 120.885895-269.473684 269.473684-269.473684s269.473684 120.939789 269.473684 269.473684c0.107789 148.587789-120.751158 269.473684-269.473684 269.473685zM44.220632 812.409263c-11.749053 0-22.878316 4.661895-31.205053 13.015579-8.218947 8.353684-12.880842 19.563789-12.880842 31.205053 0 24.495158 19.671579 44.328421 43.92421 44.328421h339.698527a463.171368 463.171368 0 0 1-43.466106-88.414316l-296.070736-0.134737z m0-707.233684h938.522947c24.360421 0 43.951158-19.833263 43.951158-44.220632 0-11.749053-4.554105-22.986105-12.746105-31.339789a43.762526 43.762526 0 0 0-31.205053-12.988632H44.193684C20.453053 17.596632 1.616842 37.052632 1.616842 60.793263a44.382316 44.382316 0 0 0 42.576842 44.355369z m0 530.378105h267.398736c0.889263-29.669053 4.419368-59.365053 10.752-88.387368H44.193684a44.193684 44.193684 0 1 0 0 88.414316z m444.092631-353.549473H44.247579A44.032 44.032 0 0 0 0.269474 326.332632c0 24.522105 19.671579 44.355368 43.92421 44.355368h358.885053a472.872421 472.872421 0 0 1 85.261474-88.656842z m299.008 362.522947v-92.833684a39.774316 39.774316 0 1 0-79.575579 0v132.634947c0 22.096842 17.812211 39.774316 39.801263 39.774316h132.634948a39.774316 39.774316 0 1 0 0-79.575579h-92.860632z" fill="#484848" p-id="8080"></path></svg>