<?xml version="1.0" standalone="no"?><!DOCTYPE svg PUBLIC "-//W3C//DTD SVG 1.1//EN" "http://www.w3.org/Graphics/SVG/1.1/DTD/svg11.dtd"><svg t="1721287995015" class="icon" viewBox="0 0 1024 1024" version="1.1" xmlns="http://www.w3.org/2000/svg" p-id="6962" xmlns:xlink="http://www.w3.org/1999/xlink" width="256" height="256"><path d="M743.280922 561.19375a49.16455 49.16455 0 0 1-34.872406-14.444433L245.846672 84.187474c-19.255702-19.259244-19.255702-50.483797 0-69.743041 19.259244-19.259244 50.485568-19.259244 69.744812 0l462.561844 462.561843c19.255702 19.259244 19.255702 50.483797 0 69.743041a49.16455 49.16455 0 0 1-34.872406 14.444433z" fill="#707070" p-id="6963"></path><path d="M280.719078 1023.999965c-12.622277 0-25.241013-4.81304-34.872406-14.444433-19.255702-19.259244-19.255702-50.483797 0-69.743041L708.408516 477.250647c19.264556-19.257473 50.485568-19.259244 69.744812 0 19.255702 19.259244 19.255702 50.483797 0 69.743041L315.591484 1009.555532a49.171633 49.171633 0 0 1-34.872406 14.444433z" fill="#707070" p-id="6964"></path></svg>