<?xml version="1.0" standalone="no"?><!DOCTYPE svg PUBLIC "-//W3C//DTD SVG 1.1//EN" "http://www.w3.org/Graphics/SVG/1.1/DTD/svg11.dtd"><svg t="1711073534675" class="icon" viewBox="0 0 1024 1024" version="1.1" xmlns="http://www.w3.org/2000/svg" p-id="55471" xmlns:xlink="http://www.w3.org/1999/xlink" width="256" height="256"><path d="M398.17904802 463.38285688H137.26476177C91.45904802 463.38285688 53.33333333 403.86285687 53.33333333 358.12571469V118.53714313C53.33333333 72.8 91.45904802 34.74285688 137.26476177 34.74285688h260.91428625c45.73714312 0 83.93142844 38.12571469 83.93142844 83.86285781v259.40571375a85.02857156 85.02857156 0 0 1-83.93142844 85.44z m492.82285687 0H630.08761864c-45.73714312 0-83.93142844-59.52-83.93142844-105.25714219V118.53714313C546.1561902 72.8 584.35047646 34.74285688 630.08761864 34.74285688h260.91428625c45.80571469 0 83.93142844 38.12571469 83.93142844 83.86285781v259.40571375c0 47.31428531-36.61714313 85.44-83.93142844 85.44z m0 492.89142843H630.08761864c-45.73714312 0-83.93142844-59.52-83.93142844-105.32571375V612.93714313c0-45.80571469 38.19428531-83.93142844 83.93142844-83.93142844h260.91428625c45.80571469 0 83.93142844 38.12571469 83.93142844 83.93142844v259.40571375a83.65714313 83.65714313 0 0 1-83.93142844 83.93142843z m-492.82285687 0H137.26476177C91.45904802 956.27428531 53.33333333 896.68571469 53.33333333 850.94857156V612.93714313c0-45.80571469 38.12571469-83.93142844 83.93142844-83.93142844h260.91428625c45.73714312 0 83.93142844 38.12571469 83.93142844 83.93142844v259.40571375c0 45.73714312-38.19428531 83.93142844-83.93142844 83.93142843z" fill="#484848" p-id="55472"></path></svg>