<?xml version="1.0" standalone="no"?><!DOCTYPE svg PUBLIC "-//W3C//DTD SVG 1.1//EN" "http://www.w3.org/Graphics/SVG/1.1/DTD/svg11.dtd"><svg t="1711073916346" class="icon" viewBox="0 0 1024 1024" version="1.1" xmlns="http://www.w3.org/2000/svg" p-id="2765" xmlns:xlink="http://www.w3.org/1999/xlink" width="256" height="256"><path d="M334 111.6c0-24.6-20-44.4-44.4-44.4s-44.4 20-44.4 44.4v89H111.6c-24.6 0-44.4 20-44.4 44.4s20 44.4 44.4 44.4h623V690h89V245c0-24.6-20-44.4-44.4-44.4H334V111.6zM245 334v445c0 24.6 20 44.4 44.4 44.4h445v89c0 24.6 20 44.4 44.4 44.4s44.4-20 44.4-44.4v-89h89c24.6 0 44.4-20 44.4-44.4s-20-44.4-44.4-44.4H334V334h-89z" fill="#484848" p-id="2766"></path></svg>