<?xml version="1.0" standalone="no"?><!DOCTYPE svg PUBLIC "-//W3C//DTD SVG 1.1//EN" "http://www.w3.org/Graphics/SVG/1.1/DTD/svg11.dtd"><svg t="1711072996980" class="icon" viewBox="0 0 1024 1024" version="1.1" xmlns="http://www.w3.org/2000/svg" p-id="22010" xmlns:xlink="http://www.w3.org/1999/xlink" width="256" height="256"><path d="M876.2 258.9h-47V149.2c0-43.3-35.1-78.4-78.4-78.4H280.5c-43.3 0-78.4 35.1-78.4 78.4V259h-47c-43.3 0-78.4 35.1-78.4 78.4v346.9c0 43.3 35.1 78.4 78.4 78.4h47v107.8c0 43.3 35.1 78.4 78.4 78.4h470.4c43.3 0 78.4-35.1 78.4-78.4V762.6h47c43.3 0 78.4-35.1 78.4-78.4V337.3c-0.1-43.3-35.2-78.4-78.5-78.4zM256.6 133.2c0-4.3 3.5-7.8 7.8-7.8h501.4c4.3 0 7.8 3.5 7.8 7.8v125.7h-517V133.2z m518.1 753.2c0 4.3-3.5 7.8-7.8 7.8H264.5c-4.3 0-7.8-3.5-7.8-7.8V589.1c0-4.3 3.5-7.8 7.8-7.8h502.4c4.3 0 7.8 3.5 7.8 7.8v297.3z" p-id="22011" fill="#484848"></path><path d="M669 701.8H372.2c-15 0-27.4-12.3-27.4-27.4 0-15 12.3-27.4 27.4-27.4H669c15 0 27.4 12.3 27.4 27.4 0 15.1-12.3 27.4-27.4 27.4zM669 831.1H372.2c-15 0-27.4-12.3-27.4-27.4 0-15 12.3-27.4 27.4-27.4H669c15 0 27.4 12.3 27.4 27.4 0 15.1-12.3 27.4-27.4 27.4z" fill="#484848" p-id="22012"></path></svg>