<?xml version="1.0" standalone="no"?><!DOCTYPE svg PUBLIC "-//W3C//DTD SVG 1.1//EN" "http://www.w3.org/Graphics/SVG/1.1/DTD/svg11.dtd"><svg t="1711520539926" class="icon" viewBox="0 0 1024 1024" version="1.1" xmlns="http://www.w3.org/2000/svg" p-id="6041" width="256" height="256" xmlns:xlink="http://www.w3.org/1999/xlink"><path d="M176 672v176h214.016v96H144a64 64 0 0 1-64-64V672h96z m768 0v208a64 64 0 0 1-64 64H633.984v-96h214.016V672h96z m-16-208a16 16 0 0 1 16 16v64a16 16 0 0 1-16 16h-832a16 16 0 0 1-16-16v-64a16 16 0 0 1 16-16h832z m-48-384a64 64 0 0 1 64 64V352h-96V176H633.984v-96h246.016z m-489.984 0v96H176V352h-96V144a64 64 0 0 1 64-64h246.016z" fill="#484848" p-id="6042"></path></svg>