<?xml version="1.0" encoding="utf-8"?>
<!-- Generator: Adobe Illustrator 24.0.0, SVG Export Plug-In . SVG Version: 6.00 Build 0)  -->
<svg version="1.1" id="图层_1" xmlns="http://www.w3.org/2000/svg" xmlns:xlink="http://www.w3.org/1999/xlink" x="0px" y="0px"
	 viewBox="0 0 45 45" style="enable-background:new 0 0 45 45;" xml:space="preserve">
<style type="text/css">
	.st0{display:none;opacity:0.5;fill:#444444;}
	.st1{fill:#00B6CE;}
	.st2{fill:url(#SVGID_1_);}
	.st3{display:none;}
	.st4{display:inline;fill:#00B6CE;}
	.st5{display:inline;}
	.st6{fill:url(#SVGID_2_);}
	.st7{fill:url(#SVGID_3_);}
	.st8{fill:url(#SVGID_4_);}
	.st9{fill:url(#SVGID_5_);}
	.st10{display:inline;fill:url(#SVGID_6_);}
	.st11{display:inline;fill:#C4C4C4;}
	.st12{display:inline;fill:#055A66;}
	.st13{display:inline;fill:url(#SVGID_7_);stroke:#556B6E;stroke-width:0.25;stroke-miterlimit:10;}
	.st14{display:inline;fill:#D2D2D2;}
	.st15{display:none;fill:#0DBECC;}
	.st16{display:none;opacity:0.17;fill:#FFFFFF;}
	.st17{display:inline;fill:#474A4C;stroke:url(#SVGID_10_);stroke-miterlimit:10;}
	.st18{display:inline;fill:#DD0000;}
	.st19{display:inline;opacity:0.5;fill:#444444;}
	.st20{display:inline;fill:#E3A520;}
	.st21{display:none;fill:#C4BFB5;}
</style>
<circle class="st0" cx="22.3" cy="21.8" r="40"/>
<g>
	<path class="st1" d="M23.3,0.2L5.2,16.7c-0.2,0.2-0.1,0.6,0.2,0.6h36.3c0.3,0,0.5-0.4,0.2-0.6L23.8,0.2C23.7,0.1,23.5,0.1,23.3,0.2
		z"/>
	<linearGradient id="SVGID_1_" gradientUnits="userSpaceOnUse" x1="23.6116" y1="19.1666" x2="23.5036" y2="44.7886">
		<stop  offset="0" style="stop-color:#FFFFFF"/>
		<stop  offset="1" style="stop-color:#959595"/>
	</linearGradient>
	<path class="st2" d="M38,44.9h-5.4c-0.5,0-0.9-0.4-0.9-0.9l0-10.9c0-0.5-0.4-0.9-0.9-0.9l-14.4-0.2c-0.5,0-0.9,0.4-0.9,0.9v11.1
		c0,0.5-0.4,0.9-0.9,0.9H9.1c-2.2,0-4.1-1.8-4.1-4.1V20.5c0-0.9,0.7-1.6,1.6-1.6h33.8c0.9,0,1.6,0.7,1.6,1.6v20.3
		C42.1,43,40.2,44.9,38,44.9z"/>
</g>
<g class="st3">
	<path class="st4" d="M22.4,0.3L4.2,16.8C4,17,4.1,17.4,4.5,17.4h36.3c0.3,0,0.5-0.4,0.2-0.6L22.8,0.3C22.7,0.2,22.5,0.2,22.4,0.3z"
		/>
	<path class="st4" d="M37,45h-5.4c-0.5,0-0.9-0.4-0.9-0.9l0-10.9c0-0.5-0.4-0.9-0.9-0.9L15.4,32c-0.5,0-0.9,0.4-0.9,0.9l0,11.1
		c0,0.5-0.4,0.9-0.9,0.9H8.2c-2.2,0-4.1-1.8-4.1-4.1V20.6c0-0.9,0.7-1.6,1.6-1.6h33.8c0.9,0,1.6,0.7,1.6,1.6v20.3
		C41.1,43.2,39.3,45,37,45z"/>
</g>
<g class="st3">
	<g class="st5">
		<linearGradient id="SVGID_2_" gradientUnits="userSpaceOnUse" x1="22.2043" y1="8.8373" x2="23.801" y2="44.0595">
			<stop  offset="0" style="stop-color:#FFFFFF"/>
			<stop  offset="1" style="stop-color:#959595"/>
		</linearGradient>
		<path class="st6" d="M41,6.4H15V4.6c0-2.3-1.9-4.1-4.1-4.1H4.7c-2.3,0-4.1,1.9-4.1,4.1v1.8v1.8v6h43.5V9.5
			C44.1,7.8,42.7,6.4,41,6.4z"/>
		<linearGradient id="SVGID_3_" gradientUnits="userSpaceOnUse" x1="21.4117" y1="8.9193" x2="23.0013" y2="43.9854">
			<stop  offset="0" style="stop-color:#FFFFFF"/>
			<stop  offset="1" style="stop-color:#959595"/>
		</linearGradient>
		<path class="st7" d="M0.6,38.4c0,3.3,2.7,6,6,6h31c3.6,0,6.5-2.9,6.5-6.5V20.2H0.6V38.4z"/>
	</g>
	<path class="st4" d="M15,20.2H3.7v-3.6c0-0.6,0.5-1.1,1.1-1.1H14c0.6,0,1.1,0.5,1.1,1.1V20.2z"/>
	<path class="st4" d="M28,20.2H16.7v-3.6c0-0.6,0.5-1.1,1.1-1.1H27c0.6,0,1.1,0.5,1.1,1.1V20.2z"/>
	<path class="st4" d="M41,20.2H29.7v-3.6c0-0.6,0.5-1.1,1.1-1.1H40c0.6,0,1.1,0.5,1.1,1.1V20.2z"/>
</g>
<g class="st3">
	<g class="st5">
		<path class="st1" d="M41.2,6.5h-26V4.6c0-2.3-1.9-4.1-4.1-4.1H4.9c-2.3,0-4.1,1.9-4.1,4.1v1.8v1.8v6h43.5V9.5
			C44.3,7.8,42.9,6.5,41.2,6.5z"/>
		<path class="st1" d="M0.7,38.5c0,3.3,2.7,6,6,6h31c3.6,0,6.5-2.9,6.5-6.5V20.2H0.7V38.5z"/>
	</g>
	<path class="st4" d="M15.2,20.2H3.8v-3.6c0-0.6,0.5-1.1,1.1-1.1h9.2c0.6,0,1.1,0.5,1.1,1.1V20.2z"/>
	<path class="st4" d="M28.2,20.2H16.8v-3.6c0-0.6,0.5-1.1,1.1-1.1h9.2c0.6,0,1.1,0.5,1.1,1.1V20.2z"/>
	<path class="st4" d="M41.2,20.2H29.8v-3.6c0-0.6,0.5-1.1,1.1-1.1h9.2c0.6,0,1.1,0.5,1.1,1.1V20.2z"/>
</g>
<g class="st3">
	<path class="st4" d="M44.4,11V8.4c0-0.1-0.1-0.2-0.2-0.2L42,8.1c-0.2,0-0.3-0.1-0.3-0.2c-0.2-0.5-0.4-0.9-0.7-1.4
		c-0.1-0.2-0.1-0.4,0.1-0.6l1-1.7c0.1-0.1,0-0.3-0.1-0.3l-2-1.3c-0.1-0.1-0.3,0-0.4,0.1l-1.3,1.6c-0.1,0.1-0.3,0.2-0.4,0.2
		c-0.5-0.1-0.9-0.2-1.4-0.2c-0.5,0-0.8,0-1.3,0.1c-0.1,0-0.2,0-0.2-0.1l-1.4-1.8c-0.1-0.1-0.3-0.2-0.4-0.1l-2.1,1.3
		C31,3.8,31,4,31.1,4.1l1,1.9c0.1,0.1,0.1,0.2,0,0.3c-0.4,0.5-0.6,0.9-0.8,1.5c0,0.1-0.1,0.2-0.3,0.2l-2.2,0.1
		c-0.1,0-0.2,0.1-0.2,0.2V11c0,0.1,0.1,0.2,0.2,0.2l2.2,0.1c0.1,0,0.2,0.1,0.3,0.2c0.2,0.6,0.4,1,0.8,1.5c0.1,0.1,0.1,0.2,0,0.3
		L31,15.2c-0.1,0.1-0.1,0.3,0.1,0.4l2,1.3c0.1,0.1,0.3,0.1,0.4-0.1l1.3-1.6c0.1-0.1,0.2-0.2,0.4-0.1c0.5,0.1,0.8,0.2,1.3,0.2
		c0.5,0,0.7,0,1.1-0.1c0.1,0,0.3,0,0.3,0.1l1.4,1.7c0.1,0.1,0.2,0.1,0.3,0.1l2.2-1.4c0.1-0.1,0.1-0.2,0.1-0.3l-1.1-2
		c-0.1-0.1-0.1-0.2,0-0.3c0.4-0.5,0.6-0.8,0.8-1.4c0-0.1,0.2-0.2,0.3-0.2l2.2-0.2C44.3,11.2,44.4,11.1,44.4,11z M36.7,12.1
		c-1.5,0.2-2.8-1.1-2.6-2.6c0.1-1.1,1-2,2.1-2.1c1.5-0.2,2.8,1.1,2.6,2.6C38.7,11.1,37.8,12,36.7,12.1z"/>
	<g class="st5">
		<linearGradient id="SVGID_4_" gradientUnits="userSpaceOnUse" x1="14.6471" y1="6.9856" x2="15.4297" y2="32.9095">
			<stop  offset="0" style="stop-color:#FFFFFF"/>
			<stop  offset="1" style="stop-color:#959595"/>
		</linearGradient>
		<path class="st8" d="M25.1,28.4c-0.2-0.3-0.2-0.6-0.1-0.9c0.3-0.6,0.5-1.1,0.7-1.7c0.1-0.3,0.4-0.5,0.7-0.6l3.4-0.4
			c0.4,0,0.7-0.4,0.7-0.8v-3.4c0-0.4-0.3-0.8-0.7-0.8l-3.4-0.4c-0.3,0-0.6-0.2-0.7-0.6c-0.2-0.6-0.5-1.2-0.8-1.7
			c-0.1-0.3-0.1-0.6,0.1-0.9l2.2-2.6c0.3-0.3,0.2-0.8-0.1-1.1l-2.3-2.3c-0.3-0.3-0.8-0.3-1.1-0.1l-2.6,2.2c-0.3,0.2-0.6,0.2-0.9,0.1
			c-0.6-0.3-1.2-0.5-1.8-0.8C18.2,11.6,18,11.3,18,11l-0.4-3.4c0-0.4-0.4-0.7-0.8-0.7h-3.3c-0.4,0-0.8,0.3-0.8,0.7L12.3,11
			c0,0.3-0.3,0.6-0.6,0.7c-0.6,0.2-1.2,0.5-1.8,0.7c-0.3,0.1-0.6,0.1-0.9-0.1l-2.6-2.2c-0.3-0.3-0.8-0.2-1.1,0.1L3,12.6
			c-0.3,0.3-0.3,0.8-0.1,1.1l2.2,2.6c0.2,0.3,0.2,0.6,0.1,0.9c-0.3,0.6-0.5,1.2-0.7,1.8c-0.1,0.3-0.4,0.5-0.7,0.6l-3.4,0.4
			c-0.4,0-0.7,0.4-0.7,0.8V24c0,0.4,0.3,0.8,0.7,0.8l3.4,0.4c0.3,0,0.6,0.3,0.7,0.6c0.2,0.6,0.4,1.2,0.7,1.7
			c0.1,0.3,0.1,0.6-0.1,0.9l-2.1,2.6c-0.3,0.3-0.2,0.8,0.1,1.1l2.3,2.3c0.3,0.3,0.8,0.3,1.1,0.1L9,32.4c0.3-0.2,0.6-0.2,0.9-0.1
			c0.6,0.3,1.2,0.5,1.8,0.7c0.3,0.1,0.5,0.4,0.6,0.7l0.4,3.4c0,0.4,0.4,0.7,0.8,0.7h3.3c0.4,0,0.8-0.3,0.8-0.7l0.4-3.4
			c0-0.3,0.2-0.6,0.6-0.7c0.6-0.2,1.2-0.5,1.8-0.8c0.3-0.1,0.6-0.1,0.9,0.1l2.6,2.1c0.3,0.3,0.8,0.2,1.1-0.1l2.3-2.3
			c0.3-0.3,0.3-0.8,0.1-1.1L25.1,28.4z M18.3,25.6c-0.9,0.9-1.9,1.3-3.2,1.3c-1.3,0-2.3-0.4-3.2-1.3c-0.9-0.9-1.3-2-1.3-3.2
			c0-1.3,0.4-2.3,1.3-3.2s1.9-1.3,3.2-1.3c1.3,0,2.3,0.4,3.2,1.3s1.3,1.9,1.3,3.2S19.2,24.7,18.3,25.6z"/>
		<linearGradient id="SVGID_5_" gradientUnits="userSpaceOnUse" x1="35.6756" y1="6.3508" x2="36.4582" y2="32.2747">
			<stop  offset="0" style="stop-color:#FFFFFF"/>
			<stop  offset="1" style="stop-color:#959595"/>
		</linearGradient>
		<path class="st9" d="M44.2,31.1L42,31c-0.2,0-0.3-0.1-0.3-0.2c-0.2-0.5-0.4-0.9-0.7-1.4c-0.1-0.2-0.1-0.4,0.1-0.6l1-1.7
			c0.1-0.1,0-0.3-0.1-0.3l-2-1.3c-0.1-0.1-0.3,0-0.4,0.1l-1.3,1.6c-0.1,0.1-0.3,0.2-0.4,0.2c-0.5-0.1-0.9-0.2-1.4-0.2
			c-0.5,0-0.8,0-1.3,0.1c-0.1,0-0.2,0-0.2-0.1l-1.4-1.8c-0.1-0.1-0.3-0.2-0.4-0.1l-2,1.3C31,26.7,31,26.9,31.1,27l1,1.9
			c0.1,0.1,0.1,0.2,0,0.3c-0.4,0.5-0.6,0.9-0.8,1.5c0,0.1-0.1,0.2-0.3,0.2l-2.2,0.1c-0.1,0-0.2,0.1-0.2,0.2v2.5
			c0,0.1,0.1,0.2,0.2,0.2l2.2,0.1c0.1,0,0.2,0.1,0.3,0.2c0.2,0.6,0.4,1,0.8,1.5c0.1,0.1,0.1,0.2,0,0.3L31,38.1
			c-0.1,0.1-0.1,0.3,0.1,0.4l2,1.3c0.1,0.1,0.3,0.1,0.4-0.1l1.3-1.6C34.8,38,35,38,35.1,38c0.5,0.1,0.8,0.2,1.3,0.2
			c0.5,0,0.7,0,1.1-0.1c0.1,0,0.3,0,0.3,0.1l1.4,1.7c0.1,0.1,0.2,0.1,0.3,0.1l2.2-1.4c0.1-0.1,0.1-0.2,0.1-0.3l-1.1-2
			c-0.1-0.1-0.1-0.2,0-0.3c0.4-0.5,0.6-0.8,0.8-1.4c0-0.1,0.2-0.2,0.3-0.2l2.2-0.2c0.1,0,0.2-0.1,0.2-0.2v-2.7
			C44.4,31.2,44.3,31.1,44.2,31.1z M36.7,35c-1.5,0.2-2.8-1.1-2.6-2.6c0.1-1.1,1-2,2.1-2.1c1.5-0.2,2.8,1.1,2.6,2.6
			C38.7,34,37.8,34.9,36.7,35z"/>
	</g>
</g>
<g class="st3">
	<linearGradient id="SVGID_6_" gradientUnits="userSpaceOnUse" x1="22.3297" y1="5.8688" x2="22.3297" y2="39.7176">
		<stop  offset="0" style="stop-color:#FFFFFF"/>
		<stop  offset="1" style="stop-color:#959595"/>
	</linearGradient>
	<path class="st10" d="M27.3,12.5c-0.6,0-1.1-0.5-1.1-1.1v-12H6.7c-1.9,0-3.4,1.5-3.4,3.4V41c0,1.9,1.5,3.4,3.4,3.4H38
		c1.9,0,3.4-1.5,3.4-3.4V12.5H27.3z M34.9,33.2c0,1.1-0.9,2-2,2H11.8c-1.1,0-2-0.9-2-2v0c0-1.1,0.9-2,2-2h21.1
		C34,31.2,34.9,32.1,34.9,33.2L34.9,33.2z M32.9,28H11.8c-1.1,0-2-0.9-2-2c0-1.1,0.9-2,2-2h21.1c1.1,0,2,0.9,2,2
		C34.9,27.1,34,28,32.9,28z M32.9,20.7H11.8c-1.1,0-2-0.9-2-2c0-1.1,0.9-2,2-2h21.1c1.1,0,2,0.9,2,2C34.9,19.8,34,20.7,32.9,20.7z"
		/>
	<path class="st4" d="M40.6,10.2H28.9c-0.2,0-0.3-0.1-0.3-0.3V-0.2c0-0.3,0.4-0.4,0.6-0.2L40.8,9.7C41,9.9,40.9,10.2,40.6,10.2z"/>
</g>
<g class="st3">
	<path class="st4" d="M27.3,12.5c-0.6,0-1.1-0.5-1.1-1.1v-12H6.7c-1.9,0-3.4,1.5-3.4,3.4V41c0,1.9,1.5,3.4,3.4,3.4H38
		c1.9,0,3.4-1.5,3.4-3.4V12.5H27.3z M34.9,33.2c0,1.1-0.9,2-2,2H11.8c-1.1,0-2-0.9-2-2v0c0-1.1,0.9-2,2-2h21.1
		C34,31.2,34.9,32.1,34.9,33.2L34.9,33.2z M32.9,28H11.8c-1.1,0-2-0.9-2-2c0-1.1,0.9-2,2-2h21.1c1.1,0,2,0.9,2,2
		C34.9,27.1,34,28,32.9,28z M32.9,20.7H11.8c-1.1,0-2-0.9-2-2c0-1.1,0.9-2,2-2h21.1c1.1,0,2,0.9,2,2C34.9,19.8,34,20.7,32.9,20.7z"
		/>
	<path class="st4" d="M40.6,10.2H28.9c-0.2,0-0.3-0.1-0.3-0.3V-0.2c0-0.3,0.4-0.4,0.6-0.2L40.8,9.7C41,9.9,40.9,10.2,40.6,10.2z"/>
</g>
<g class="st3">
	<path class="st11" d="M22.5,5c-9.9,0-18,8.1-18,18s8.1,18,18,18c9.9,0,18-8.1,18-18S32.4,5,22.5,5z M22.5,36.1
		c-7.2,0-13.1-5.9-13.1-13.1S15.3,10,22.5,10c7.2,0,13.1,5.9,13.1,13.1S29.7,36.1,22.5,36.1z"/>
	<path class="st11" d="M29.8,20.8h-5.1v-5.1c0-0.4-0.3-0.8-0.8-0.8h-2.9c-0.4,0-0.8,0.3-0.8,0.8v5.1h-5.1c-0.4,0-0.8,0.3-0.8,0.8
		v2.9c0,0.4,0.3,0.8,0.8,0.8h5.1v5.1c0,0.4,0.3,0.8,0.8,0.8h2.9c0.4,0,0.8-0.3,0.8-0.8v-5.1h5.1c0.4,0,0.8-0.3,0.8-0.8v-2.9
		C30.6,21.2,30.3,20.8,29.8,20.8z"/>
</g>
<g class="st3">
	<path class="st12" d="M75.4,5.5L48.2-22c-0.8-0.8-1.9-1.3-3.1-1.3h-4.6h-4.8H-19c-2.4,0-4.3,1.9-4.3,4.3V90.4
		c0,2.4,1.9,4.3,4.3,4.3h91.4c2.4,0,4.3-1.9,4.3-4.3V8.5C76.7,7.4,76.2,6.3,75.4,5.5z M42.9-10.7c0.2,0.1,0.3,0.2,0.4,0.3l22.3,22.5
		c0.2,0.2,0.4,0.5,0.5,0.7H45.4c-1.4,0-2.4-1.1-2.4-2.4V-10.7z M66.3,80.3c0,1.2-1,2.2-2.2,2.2h-74.9c-1.2,0-2.2-1-2.2-2.2V-8.9
		c0-1.2,1-2.2,2.2-2.2h44v23.9v2.7v4.5c0,1.4,1.1,2.4,2.4,2.4h30.6V80.3z"/>
	<path class="st12" d="M-1.3,33.8v1.1c0,2.4,2,4.4,4.4,4.4h47.2c2.4,0,4.4-2,4.4-4.4v-1.1c0-2.4-2-4.4-4.4-4.4H3.1
		C0.7,29.4-1.3,31.4-1.3,33.8z"/>
	<path class="st12" d="M50.3,44.3H3.1c-2.4,0-4.4,2-4.4,4.4v1.1c0,2.4,2,4.4,4.4,4.4h47.2c2.4,0,4.4-2,4.4-4.4v-1.1
		C54.7,46.3,52.7,44.3,50.3,44.3z"/>
	<path class="st12" d="M50.3,59.2H3.1c-2.4,0-4.4,2-4.4,4.4v1.1c0,2.4,2,4.4,4.4,4.4h47.2c2.4,0,4.4-2,4.4-4.4v-1.1
		C54.7,61.1,52.7,59.2,50.3,59.2z"/>
</g>
<g class="st3">
	<linearGradient id="SVGID_7_" gradientUnits="userSpaceOnUse" x1="228.2797" y1="404.7114" x2="-322.9033" y2="-29.0268">
		<stop  offset="0" style="stop-color:#00CFEA"/>
		<stop  offset="1" style="stop-color:#006E7D"/>
	</linearGradient>
	<path class="st13" d="M226,512.9h-564.1c-11.6,0-21-9.4-21-21v-622.1c0-11.6,9.4-21,21-21H226c11.6,0,21,9.4,21,21V492
		C246.9,503.6,237.5,512.9,226,512.9z"/>
	<g class="st5">
		<defs>
			<path id="SVGID_8_" d="M226,512.9h-564.1c-11.6,0-21-9.4-21-21v-622.1c0-11.6,9.4-21,21-21H226c11.6,0,21,9.4,21,21V492
				C246.9,503.6,237.5,512.9,226,512.9z"/>
		</defs>
		<clipPath id="SVGID_9_">
			<use xlink:href="#SVGID_8_"  style="overflow:visible;"/>
		</clipPath>
		<g transform="matrix(1 0 0 1 0 0)" style="opacity:0.3;clip-path:url(#SVGID_9_);">
			
				<image style="overflow:visible;" width="1650" height="920" xlink:href="../../../Q384Q/素材/icon/素材.png"  transform="matrix(0.3967 0 0 0.3967 -384.2201 3.2279)">
			</image>
		</g>
	</g>
</g>
<g class="st3">
	<path class="st14" d="M44.9,15.3L34.1,1.5c0-0.1-0.1-0.1-0.2-0.1h-22c-0.1,0-0.1,0-0.2,0.1L1.4,15.3c-0.1,0.2,0,0.4,0.2,0.4h43.1
		C45,15.7,45.1,15.4,44.9,15.3z M36.9,12.1L9.5,12c-0.1,0-0.2-0.1-0.1-0.2l5.2-7.5c0.1,0,0.2-0.1,0.3-0.1l16.2,0
		c0.1,0,0.2,0.1,0.2,0.1l5.7,7.6C37.1,12,37,12.1,36.9,12.1z"/>
	<polygon class="st4" points="28.3,23.5 25.5,9.1 28.5,9.1 23.2,5.5 17.6,9.1 20.8,9.1 17.3,23.5 	"/>
</g>
<g class="st3">
	<path class="st14" d="M44.5,14.9L33.9,1.4c0,0-0.1-0.1-0.2-0.1H12.1c-0.1,0-0.1,0-0.2,0.1L1.9,14.9c-0.1,0.1,0,0.4,0.2,0.4h42.3
		C44.6,15.3,44.7,15.1,44.5,14.9z M36.6,11.8L9.7,11.7c-0.1,0-0.2-0.1-0.1-0.2l5.1-7.4C14.8,4.1,14.9,4,15,4l15.9,0
		c0.1,0,0.2,0.1,0.2,0.1l5.6,7.5C36.8,11.6,36.7,11.8,36.6,11.8z"/>
	<polygon class="st4" points="21.7,5.3 19,18.2 14.7,18.2 23.2,22.9 31.6,18.2 27.2,18.2 25,5.3 	"/>
</g>
<path class="st15" d="M34.3,20.5h-9.8v-9.8c0-1.2-0.9-2.1-2.1-2.1s-2.1,0.9-2.1,2.1v9.8h-9.8c-1.2,0-2.1,0.9-2.1,2.1
	s0.9,2.1,2.1,2.1h9.8v9.8c0,1.2,0.9,2.1,2.1,2.1s2.1-0.9,2.1-2.1v-9.8h9.8c1.2,0,2.1-0.9,2.1-2.1S35.4,20.5,34.3,20.5z"/>
<circle class="st16" cx="22.9" cy="22.5" r="20"/>
<path class="st15" d="M32.4,19.9h-7v-7c0-0.8-0.7-1.5-1.5-1.5c-0.8,0-1.5,0.7-1.5,1.5v7h-7c-0.8,0-1.5,0.7-1.5,1.5s0.7,1.5,1.5,1.5
	h7v7c0,0.8,0.7,1.5,1.5,1.5c0.8,0,1.5-0.7,1.5-1.5v-7h7c0.8,0,1.5-0.7,1.5-1.5S33.3,19.9,32.4,19.9z"/>
<g class="st3">
	<linearGradient id="SVGID_10_" gradientUnits="userSpaceOnUse" x1="23.3207" y1="64.9185" x2="23.3207" y2="-16.0815">
		<stop  offset="0" style="stop-color:#231815"/>
		<stop  offset="1" style="stop-color:#727171"/>
	</linearGradient>
	<circle class="st17" cx="23.3" cy="24.4" r="40"/>
	<path class="st18" d="M39.9,40.9H6.7c-1.3,0-2.4-1.1-2.4-2.4V10.3c0-1.3,1.1-2.4,2.4-2.4h33.2c1.3,0,2.4,1.1,2.4,2.4v28.2
		C42.3,39.8,41.2,40.9,39.9,40.9z"/>
</g>
<g class="st3">
	<circle class="st19" cx="20.2" cy="17.2" r="40"/>
	<path class="st20" d="M20.2-7.3C6.6-7.3-4.3,3.7-4.3,17.2c0,13.5,11,24.5,24.5,24.5c13.5,0,24.5-11,24.5-24.5
		C44.7,3.7,33.7-7.3,20.2-7.3z M20.2,31.7c-8,0-14.4-6.5-14.4-14.4c0-8,6.5-14.4,14.4-14.4s14.4,6.5,14.4,14.4
		C34.6,25.2,28.1,31.7,20.2,31.7z"/>
</g>
<circle class="st0" cx="22.5" cy="22.5" r="40"/>
<path class="st21" d="M22.5-2C9-2-2,9-2,22.5C-2,36,9,47,22.5,47C36,47,47,36,47,22.5C47,9,36-2,22.5-2z M22.5,36.9
	c-8,0-14.4-6.5-14.4-14.4c0-8,6.5-14.4,14.4-14.4s14.4,6.5,14.4,14.4C36.9,30.5,30.5,36.9,22.5,36.9z"/>
</svg>
