<?xml version="1.0" standalone="no"?><!DOCTYPE svg PUBLIC "-//W3C//DTD SVG 1.1//EN" "http://www.w3.org/Graphics/SVG/1.1/DTD/svg11.dtd"><svg t="1711073921843" class="icon" viewBox="0 0 1024 1024" version="1.1" xmlns="http://www.w3.org/2000/svg" p-id="2983" xmlns:xlink="http://www.w3.org/1999/xlink" width="256" height="256"><path d="M85.332836 42.672391a42.666418 42.666418 0 0 1 42.666417-42.666418h469.330596v85.332836H170.665671v853.328355h426.664178a42.666418 42.666418 0 1 1 0 85.332836H127.999253a42.666418 42.666418 0 0 1-42.666417-42.666418V42.672391z m810.661937 554.663431a42.666418 42.666418 0 0 1-42.666417-42.666418V341.337316h85.332835v213.332088a42.666418 42.666418 0 0 1-42.666418 42.666418z" p-id="2984" fill="#484848"></path><path d="M511.997013 384.003733a42.666418 42.666418 0 0 0-42.666417-42.666417H298.664924a42.666418 42.666418 0 1 0 0 85.332835h170.665672a42.666418 42.666418 0 0 0 42.666417-42.666418zM597.329849 554.669404a42.666418 42.666418 0 0 0-42.666418-42.666417H298.664924a42.666418 42.666418 0 1 0 0 85.332835h255.998507a42.666418 42.666418 0 0 0 42.666418-42.666418zM737.830363 609.837083a42.666418 42.666418 0 0 1 60.330314 0l127.999254 127.999253a42.666418 42.666418 0 0 1-60.330315 60.330315L767.99552 700.332555l-97.834096 97.834096a42.666418 42.666418 0 1 1-60.330315-60.330315l127.999254-127.999253z" p-id="2985" fill="#484848"></path><path d="M767.99552 597.335822a42.666418 42.666418 0 0 1 42.666418 42.666418v341.331342a42.666418 42.666418 0 1 1-85.332836 0v-341.331342a42.666418 42.666418 0 0 1 42.666418-42.666418zM580.988611 3.248621a42.666418 42.666418 0 0 1 46.506395 9.258613l298.664925 298.664924A42.666418 42.666418 0 0 1 895.994773 384.003733h-298.664924a42.666418 42.666418 0 0 1-42.666418-42.666417V42.672391a42.666418 42.666418 0 0 1 26.32518-39.42377zM639.996267 145.669124V298.670898h153.001774L639.996267 145.669124z" p-id="2986" fill="#484848"></path></svg>