<?xml version="1.0" encoding="utf-8"?>
<!-- Generator: Adobe Illustrator 24.0.0, SVG Export Plug-In . SVG Version: 6.00 Build 0)  -->
<svg version="1.1" id="图层_1" xmlns="http://www.w3.org/2000/svg" xmlns:xlink="http://www.w3.org/1999/xlink" x="0px" y="0px"
	 viewBox="0 0 28 26" style="enable-background:new 0 0 28 26;" xml:space="preserve">
<style type="text/css">
	.st0{display:none;}
	.st1{display:inline;fill:#494949;}
	.st2{display:inline;}
	.st3{fill:#494949;}
	.st4{display:inline;fill:#AED220;stroke:#276953;stroke-width:0.5;stroke-miterlimit:10;}
	.st5{display:none;fill:none;stroke:#276953;stroke-width:0.5;stroke-miterlimit:10;}
</style>
<g class="st0">
	<rect x="7.4" y="2.5" class="st1" width="13.2" height="6.2"/>
	<path class="st1" d="M21.2,2.5H6.9C6.3,2.5,5.7,2,5.7,1.4V1.2c0-0.6,0.5-1.1,1.1-1.1h14.3c0.6,0,1.1,0.5,1.1,1.1v0.2
		C22.3,2,21.8,2.5,21.2,2.5z"/>
	<g class="st2">
		<path class="st3" d="M26.7,23.1l-1.8-4.2c-1.6-1.1-5.7-3.3-11.2-0.5C8,21.3,4,20.1,2.8,19.6l-1.5,3.5c-0.6,1.3,0.4,2.8,1.9,2.8
			h21.7C26.3,25.9,27.3,24.4,26.7,23.1z"/>
		<path class="st3" d="M13.8,15.8c4.2-2.2,7.6-1.4,9.7-0.4l-2.8-6.7H7.4l-3.7,8.6C5.5,17.9,9,18.3,13.8,15.8z M18.2,10.2
			c0.8,0,1.4,0.6,1.4,1.4S18.9,13,18.2,13c-0.8,0-1.4-0.6-1.4-1.4S17.4,10.2,18.2,10.2z"/>
	</g>
</g>
<g>
	<path class="st3" d="M5,19H4.3c-0.6,0-1.1-0.5-1.1-1.1V6.4c0-0.6,0.5-1.1,1.1-1.1H5c0.6,0,1.1,0.5,1.1,1.1V18C6.1,18.6,5.6,19,5,19
		z"/>
	<path class="st3" d="M17.4,19h-0.7c-0.6,0-1.1-0.5-1.1-1.1V2.6c0-0.6,0.5-1.1,1.1-1.1h0.7c0.6,0,1.1,0.5,1.1,1.1v15.3
		C18.5,18.5,18,19,17.4,19z"/>
	<path class="st3" d="M2.5,23.1v-1.2c0-0.5,0.4-0.8,0.8-0.8h21.3c0.5,0,0.8,0.4,0.8,0.8v1.2c0,0.5-0.4,0.8-0.8,0.8H3.3
		C2.9,24,2.5,23.6,2.5,23.1z"/>
	<path class="st3" d="M11.2,19h-0.7c-0.6,0-1.1-0.5-1.1-1.1v-6.4c0-0.6,0.5-1.1,1.1-1.1h0.7c0.6,0,1.1,0.5,1.1,1.1v6.4
		C12.3,18.6,11.8,19,11.2,19z"/>
	<path class="st3" d="M23.4,19h-0.4c-0.7,0-1.3-0.6-1.3-1.3v-3.4c0-0.7,0.6-1.3,1.3-1.3h0.4c0.7,0,1.3,0.6,1.3,1.3v3.4
		C24.7,18.5,24.1,19,23.4,19z"/>
</g>
<g class="st0">
	<path class="st4" d="M22.7,24.7H3.2c-0.8,0-1.9-0.3-1.5-1.6l6.2-9.5C8.1,12.9,9,12,9.4,12h18.6c0.8,0,1.8,0.6,1.5,1.6l-5.2,9.5
		C23.8,23.9,23.1,24.7,22.7,24.7z"/>
	<path class="st4" d="M0.4,22.1l6.4-10c0.3-0.8,1.4-1.9,1.8-1.9h17.7V6.4c0-0.9-0.7-1.6-1.6-1.6H12.2V2.2c0-0.9-0.7-1.6-1.6-1.6H1.9
		C1,0.6,0.3,1.3,0.3,2.2v4.2v0.2C0.3,6.6,0.4,22.1,0.4,22.1z"/>
</g>
<path class="st5" d="M26.1,11.5l-2.2-0.2c-0.2-1.2-0.7-2.4-1.4-3.4L24,6c0.3-0.3,0.2-0.8,0-1l-1.7-1.7c-0.3-0.3-0.7-0.3-1-0.1
	l-1.9,1.5c-0.9-0.6-1.9-1-3-1.2l-0.2-2.4c0-0.4-0.4-0.7-0.8-0.7h-2.4c-0.4,0-0.7,0.3-0.8,0.7l-0.3,2.4c-1.1,0.2-2.1,0.7-3.1,1.3
	L7,3.2c-0.3-0.3-0.8-0.2-1,0L4.2,4.9C3.9,5.2,3.9,5.7,4.1,6l1.5,1.9c-0.6,0.9-1,2-1.3,3.1l-2.4,0.2c-0.4,0-0.7,0.4-0.7,0.8v2.4
	c0,0.4,0.3,0.7,0.7,0.8l2.5,0.3c0.3,1.2,0.7,2.3,1.4,3.3l-1.5,1.7c-0.3,0.3-0.2,0.8,0,1l1.7,1.7c0.3,0.3,0.7,0.3,1,0.1l1.9-1.5
	c0.8,0.5,1.8,0.9,2.8,1.1l0.2,2.3c0,0.4,0.4,0.7,0.8,0.7h2.4c0.4,0,0.7-0.3,0.8-0.7l0.2-2.2c1-0.2,1.9-0.6,2.8-1l2.1,1.8
	c0.3,0.3,0.8,0.2,1,0l1.7-1.7c0.3-0.3,0.3-0.7,0.1-1l-1.6-2c0.7-1,1.2-2.1,1.5-3.3l2.3-0.2c0.4,0,0.7-0.4,0.7-0.8v-2.4
	C26.8,11.9,26.5,11.5,26.1,11.5z M14,18.7c-3.1,0-5.5-2.5-5.5-5.5s2.5-5.5,5.5-5.5c3.1,0,5.5,2.5,5.5,5.5S17.1,18.7,14,18.7z"/>
</svg>
