<?xml version="1.0" encoding="utf-8"?>
<!-- Generator: Adobe Illustrator 24.0.0, SVG Export Plug-In . SVG Version: 6.00 Build 0)  -->
<svg version="1.1" id="图层_1" xmlns="http://www.w3.org/2000/svg" xmlns:xlink="http://www.w3.org/1999/xlink" x="0px" y="0px"
	 viewBox="0 0 256 256" style="enable-background:new 0 0 256 256;" xml:space="preserve">
<style type="text/css">
	.st0{display:none;}
	.st1{display:inline;fill:#00B6CE;}
	.st2{display:inline;fill:url(#SVGID_1_);}
	.st3{display:inline;}
	.st4{fill:url(#SVGID_2_);}
	.st5{fill:url(#SVGID_3_);}
	.st6{fill:#00A7B5;}
	.st7{display:inline;fill:url(#SVGID_4_);}
	.st8{display:inline;fill:url(#SVGID_5_);}
	.st9{fill:#484848;}
	.st10{display:inline;fill:#484848;}
	.st11{display:inline;fill:#4B5153;}
	.st12{display:none;fill:#4B5153;}
</style>
<g class="st0">
	<g class="st3">
		<linearGradient id="SVGID_1_" gradientUnits="userSpaceOnUse" x1="127.2468" y1="50.8747" x2="136.1163" y2="246.5269">
			<stop  offset="0" style="stop-color:#FFFFFF"/>
			<stop  offset="1" style="stop-color:#959595"/>
		</linearGradient>
		<path style="fill:url(#SVGID_1_);" d="M231.8,37.6H87.4V27.3c0-12.7-10.3-23-23-23H30.2c-12.7,0-23,10.3-23,23v10.3v9.9v33.3
			h241.7V54.6C248.8,45.2,241.2,37.6,231.8,37.6z"/>
		<linearGradient id="SVGID_2_" gradientUnits="userSpaceOnUse" x1="122.5631" y1="51.0871" x2="131.4326" y2="246.7392">
			<stop  offset="0" style="stop-color:#FFFFFF"/>
			<stop  offset="1" style="stop-color:#959595"/>
		</linearGradient>
		<path class="st4" d="M7.2,227.5c0,11.8,9.6,21.4,21.4,21.4h199c11.8,0,21.4-9.6,21.4-21.4V114H7.2V227.5z"/>
	</g>
	<path class="st1" d="M87.4,114.1h-63V94.2c0-3.3,2.7-5.9,5.9-5.9h51.1c3.3,0,5.9,2.7,5.9,5.9V114.1z"/>
	<path class="st1" d="M159.6,114.1h-63V94.2c0-3.3,2.7-5.9,5.9-5.9h51.1c3.3,0,5.9,2.7,5.9,5.9V114.1z"/>
	<path class="st1" d="M231.8,114.1h-63V94.2c0-3.3,2.7-5.9,5.9-5.9h51.1c3.3,0,5.9,2.7,5.9,5.9V114.1z"/>
</g>
<g class="st0">
	<g class="st3">
		<g>
			<path d="M64.9,142.4c0-7,2.4-12.8,7.2-17.7c4.8-4.8,10.6-7.2,17.7-7.2c7,0,12.8,2.4,17.7,7.2c4.8,4.8,7.2,10.7,7.2,17.7
				c0,7-2.4,12.9-7.2,17.8c-4.8,4.8-10.6,7.2-17.7,7.2c-7,0-12.9-2.3-17.7-7.2C67.2,155.3,64.9,149.3,64.9,142.4L64.9,142.4z
				 M30.6,161.4c1.1,3.3,2.5,6.5,4,9.6c0.8,1.6,0.6,3.6-0.5,5l-11.8,14.5c-1.5,1.8-1.4,4.5,0.3,6.1l12.7,12.7
				c1.7,1.7,4.3,1.8,6.1,0.3L56,197.9c1.4-1.1,3.3-1.4,5-0.5c3.1,1.6,6.4,3,9.8,4.1c1.7,0.6,2.9,2.1,3.1,3.8l2,18.6
				c0.2,2.3,2.2,4.1,4.6,4.1h18.5c2.3,0,4.3-1.8,4.6-4.1l2-18.6c0.2-1.8,1.4-3.3,3.1-3.8c3.3-1.1,6.5-2.5,9.8-4.1
				c1.6-0.8,3.5-0.6,4.9,0.6l14.5,11.9c1.8,1.5,4.5,1.4,6.1-0.3l12.8-12.7c1.7-1.7,1.8-4.3,0.3-6.2L145,176c-1.2-1.4-1.4-3.3-0.5-5
				c1.6-3.1,3-6.3,4.1-9.6c0.6-1.7,2.1-2.9,3.8-3.1l18.6-2c2.3-0.3,4.1-2.2,4.1-4.6v-18.5c0-2.3-1.8-4.3-4.1-4.6l-18.6-2
				c-1.8-0.2-3.3-1.4-3.8-3.1c-1.2-3.3-2.6-6.4-4.2-9.6c-0.8-1.6-0.6-3.5,0.6-4.9l12-14.6c1.5-1.8,1.4-4.5-0.3-6.2l-12.9-12.9
				c-1.7-1.7-4.3-1.8-6.2-0.3L123,87c-1.4,1.1-3.3,1.4-4.9,0.6c-3.3-1.6-6.4-3-9.7-4.2c-1.7-0.6-2.9-2.1-3.1-3.8l-2-18.6
				c-0.2-2.3-2.2-4.1-4.6-4.1H80.3c-2.3,0-4.3,1.8-4.6,4.1l-2,18.6c-0.2,1.8-1.4,3.3-3.1,3.9c-3.4,1.1-6.6,2.6-9.7,4.1
				c-1.6,0.8-3.6,0.6-5-0.5L41.4,75.1c-1.8-1.5-4.5-1.4-6.2,0.3L22.5,88.3c-1.7,1.7-1.8,4.3-0.3,6.1L34.1,109
				c1.1,1.4,1.3,3.3,0.6,4.9c-1.6,3.2-3,6.4-4.1,9.7c-0.6,1.7-2.1,2.9-3.8,3l-18.7,2c-2.3,0.2-4.1,2.2-4.1,4.6v18.5
				c0,2.3,1.8,4.3,4.1,4.6l18.7,2C28.5,158.5,30,159.7,30.6,161.4z M29.7,158.6"/>
		</g>
	</g>
	<path class="st1" d="M248.2,79.9V65.2c0-0.5-0.4-1-1-1l-12.1-0.7c-0.9,0-1.7-0.6-1.9-1.4c-1-3-2.2-5-4-7.5
		c-0.8-1.1-0.4-2.2,0.4-3.3L235,42c0.4-0.6,0.2-1.4-0.4-1.9l-10.8-7.4c-0.7-0.4-1.6-0.3-2,0.4l-7.4,8.8c-0.5,0.8-1.5,1.2-2.4,1
		c-2.5-0.7-4.8-0.9-7.5-0.9c-2.8,0-4.4,0.1-7,0.8c-0.5,0.1-0.9-0.1-1.2-0.4l-7.5-9.7c-0.5-0.8-1.5-1-2.3-0.5l-11.3,7.3
		c-0.7,0.5-0.9,1.4-0.5,2.2l5.5,10.5c0.4,0.6,0.4,1.4-0.1,1.9c-2.4,2.9-3.3,4.8-4.4,8.3c-0.2,0.7-0.8,1.1-1.5,1.1l-12.1,0.8
		c-0.7,0-1.4,0.6-1.4,1.4v14c0,0.7,0.6,1.3,1.3,1.3l12.2,0.5c0.6,0,1.2,0.4,1.4,1c1.1,3.5,2.1,5.6,4.3,8.3c0.4,0.5,0.5,1.2,0.1,1.8
		l-5.9,10.3c-0.5,0.7-0.3,1.7,0.4,2.2l11.1,7.5c0.8,0.5,1.8,0.3,2.3-0.5l7.1-9.1c0.5-0.7,1.3-1,2.2-0.8c2.6,0.7,4.5,0.9,7.3,0.9
		c2.7,0,3.6,0,6.1-0.7c0.7-0.2,1.4,0.1,1.8,0.7l8,9.6c0.4,0.6,1.2,0.8,1.8,0.4l11.9-7.7c0.6-0.4,0.7-1.1,0.4-1.6l-5.9-11.1
		c-0.3-0.5-0.3-1.3,0.1-1.7c2.3-2.7,3.1-4.4,4.3-8c0.3-0.8,1-1.3,1.8-1.3l12.4-0.9C247.7,80.9,248.2,80.4,248.2,79.9z M205.8,85.8
		c-8.4,0.8-15.4-6.2-14.6-14.6c0.6-6.2,5.6-11.2,11.9-11.9c8.4-0.8,15.4,6.2,14.6,14.6C217,80.1,212,85.1,205.8,85.8z"/>
	<linearGradient id="SVGID_3_" gradientUnits="userSpaceOnUse" x1="208.4065" y1="98.5212" x2="207.6239" y2="192.4342">
		<stop  offset="0" style="stop-color:#FFFFFF"/>
		<stop  offset="1" style="stop-color:#959595"/>
	</linearGradient>
	<path style="display:inline;fill:url(#SVGID_3_);" d="M251.3,206.6v-14.7c0-0.5-0.4-1-1-1l-12.1-0.7c-0.9,0-1.7-0.6-1.9-1.4
		c-1-3-2.2-5-4-7.5c-0.8-1.1-0.4-2.2,0.4-3.3l5.4-9.3c0.4-0.6,0.2-1.4-0.4-1.9l-10.8-7.4c-0.7-0.4-1.6-0.3-2,0.4l-7.4,8.8
		c-0.5,0.8-1.5,1.2-2.4,1c-2.5-0.7-4.8-0.9-7.5-0.9c-2.8,0-4.4,0.1-7,0.8c-0.5,0.1-0.9-0.1-1.2-0.4l-7.5-9.7c-0.5-0.8-1.5-1-2.3-0.5
		l-11.3,7.3c-0.7,0.5-0.9,1.4-0.5,2.2l5.5,10.5c0.4,0.6,0.4,1.4-0.1,1.9c-2.4,2.9-3.3,4.8-4.4,8.3c-0.2,0.7-0.8,1.1-1.5,1.1
		l-12.1,0.8c-0.7,0-1.4,0.6-1.4,1.4v14c0,0.7,0.6,1.3,1.3,1.3l12.2,0.5c0.6,0,1.2,0.4,1.4,1c1.1,3.5,2.1,5.6,4.3,8.3
		c0.4,0.5,0.5,1.2,0.1,1.8l-5.9,10.3c-0.5,0.7-0.3,1.7,0.4,2.2l11.1,7.5c0.8,0.5,1.8,0.3,2.3-0.5l7.1-9.1c0.5-0.7,1.3-1,2.2-0.8
		c2.6,0.7,4.5,0.9,7.3,0.9c2.7,0,3.6,0,6.1-0.7c0.7-0.2,1.4,0.1,1.8,0.7l8,9.6c0.4,0.6,1.2,0.8,1.8,0.4l11.9-7.7
		c0.6-0.4,0.7-1.1,0.4-1.6l-5.9-11.1c-0.3-0.5-0.3-1.3,0.1-1.7c2.3-2.7,3.1-4.4,4.3-8c0.3-0.8,1-1.3,1.8-1.3l12.4-0.9
		C250.8,207.6,251.3,207.2,251.3,206.6z M208.9,212.5c-8.4,0.8-15.4-6.2-14.6-14.6c0.6-6.2,5.6-11.2,11.9-11.9
		c8.4-0.8,15.4,6.2,14.6,14.6C220.2,206.9,215.1,211.9,208.9,212.5z"/>
</g>
<g class="st0">
	<linearGradient id="SVGID_4_" gradientUnits="userSpaceOnUse" x1="131.913" y1="43.2011" x2="131.913" y2="221.7437">
		<stop  offset="0" style="stop-color:#FFFFFF"/>
		<stop  offset="1" style="stop-color:#959595"/>
	</linearGradient>
	<path class="st7" d="M157.9,78.3c-3.3,0-6.1-2.7-6.1-6.1V8.8H49.4c-9.8,0-17.7,7.9-17.7,17.7v201.9c0,9.8,7.9,17.7,17.7,17.7h164.9
		c9.8,0,17.7-7.9,17.7-17.7V78.3H157.9z M198.2,187.3c0,5.8-4.7,10.5-10.5,10.5H76.2c-5.8,0-10.5-4.7-10.5-10.5v0
		c0-5.8,4.7-10.5,10.5-10.5h111.5C193.5,176.8,198.2,181.5,198.2,187.3L198.2,187.3z M187.7,159.7H76.2c-5.8,0-10.5-4.7-10.5-10.5
		c0-5.8,4.7-10.5,10.5-10.5h111.5c5.8,0,10.5,4.7,10.5,10.5C198.2,155,193.5,159.7,187.7,159.7z M187.7,121.5H76.2
		c-5.8,0-10.5-4.7-10.5-10.5c0-5.8,4.7-10.5,10.5-10.5h111.5c5.8,0,10.5,4.7,10.5,10.5C198.2,116.8,193.5,121.5,187.7,121.5z"/>
	<path class="st1" d="M228.2,65.9h-61.5c-1,0-1.8-0.7-1.8-1.5V11.4c0-1.3,2-2,3.1-1l61.5,53.1C230.6,64.3,229.8,65.9,228.2,65.9z"/>
</g>
<g class="st0">
	<g class="st3">
		<rect class="st9" width="256" height="31.4"/>
		<path class="st9" d="M24.1,131.2c0,21.8,17.6,39.4,39.4,39.4h11.6c21.8,0,39.4-17.6,39.4-39.4v-9.1H72.9v-23h41.7V81.3H72.9v-23
			h41.7V42H24.1V131.2z"/>
		<path class="st9" d="M140.6,211.4c0,21.8,17.6,39.4,39.4,39.4h11.6c21.8,0,39.4-17.6,39.4-39.4v-48.9h-41.2v-23h41.2v-17.6h-41.2
			v-23h41.2V81.3h-41.2v-23h41.2V42h-90.5V211.4z"/>
	</g>
</g>
<g class="st0">
	<path class="st10" d="M62.5,25.8H63v53.7h136.3V25.8h0.6c7.1,0,12.9-5.8,12.9-12.9C212.8,5.8,207,0,199.9,0H62.5
		c-7.1,0-12.9,5.8-12.9,12.9C49.6,20,55.3,25.8,62.5,25.8z"/>
	<path class="st10" d="M252.4,235.7l-24.8-64.3c-9.7-2.8-26.3-9.6-43.2-10.1c-38.8-1.1-62,24.9-106.9,27.1
		c-23.6,1.2-40-6.7-48.5-10.4L5,234.3C0.7,247.8,4.3,256,18.2,256h219.7C253.2,256,254.3,246.5,252.4,235.7z"/>
	<path class="st10" d="M78.3,170.7c42.5-3.8,68.4-26.7,105.1-26.7c12.8,0,30.4,6.8,41.4,9.7l-25.5-63.1H63l-31.3,70.6
		C42.9,165.3,62.6,172.1,78.3,170.7z M175.2,112.6c5.8,0,10.6,4.7,10.6,10.6c0,5.8-4.7,10.6-10.6,10.6c-5.8,0-10.6-4.7-10.6-10.6
		C164.7,117.4,169.4,112.6,175.2,112.6z"/>
</g>
<g class="st0">
	<path class="st10" d="M104,3.1H21c-7.9,0-14.4,6.4-14.4,14.4v49.2c0,7.9,6.4,14.4,14.4,14.4h83c7.9,0,14.4-6.4,14.4-14.4V17.5
		C118.3,9.6,111.9,3.1,104,3.1z"/>
	<path class="st10" d="M239.6,172.5h-83c-7.9,0-14.4,6.4-14.4,14.4v49.2c0,7.9,6.4,14.4,14.4,14.4h83c7.9,0,14.4-6.4,14.4-14.4
		v-49.2C253.9,178.9,247.5,172.5,239.6,172.5z"/>
	<path class="st10" d="M98.6,103.9H26.3c-10.9,0-19.7,8.8-19.7,19.7v107.1c0,10.9,8.8,19.7,19.7,19.7h72.3
		c10.9,0,19.7-8.8,19.7-19.7V123.6C118.3,112.7,109.5,103.9,98.6,103.9z"/>
	<path class="st10" d="M234.3,3.1h-72.3c-10.9,0-19.7,8.8-19.7,19.7v107.1c0,10.9,8.8,19.7,19.7,19.7h72.3
		c10.9,0,19.7-8.8,19.7-19.7V22.8C253.9,11.9,245.1,3.1,234.3,3.1z"/>
</g>
<g>
	<path class="st9" d="M127.9,57.6C57.2,57.6-0.2,97.1-0.2,126.2c0,22.6,45.3,68.6,128.1,68.6c83,0,128.1-40.7,128.1-68.6
		C256,96.8,198.7,57.6,127.9,57.6z M127.4,173.9c-55,0-99.5-21.1-99.5-47.1s44.6-47.1,99.5-47.1s99.5,21.1,99.5,47.1
		S182.4,173.9,127.4,173.9z"/>
	<circle class="st9" cx="127.9" cy="126.2" r="38.8"/>
</g>
<g class="st0">
	<path class="st10" d="M255.2,171.3l-41.9-42.6l-41.9,42.6h29.9c-13.4,26.2-40.6,44.1-72,44.1c-32.1,0-59.9-18.8-72.9-45.9H31.1
		c14.3,40.3,52.8,69.2,98.1,69.2c44.6,0,82.6-28,97.4-67.4H255.2z"/>
	<path class="st10" d="M42.9,142.3l41.9-42.6H56.4c13-27.1,40.7-45.8,72.8-45.8c32.1,0,59.9,18.8,72.9,45.9h25.2
		c-14.3-40.3-52.8-69.2-98.1-69.2c-45.2,0-83.7,28.9-98.1,69.2H1L42.9,142.3z"/>
</g>
<g class="st0">
	<path class="st11" d="M232.7,59.8L187.4,6.6C186,5,183.9,4,181.8,4H29c-4.2,0-7.5,3.4-7.5,7.5V243c0,4.2,3.4,7.5,7.5,7.5H227
		c4.2,0,7.5-3.4,7.5-7.5V64.7C234.5,62.9,233.9,61.2,232.7,59.8z M172.1,23.7h0.2l40.1,48.6h-37.6c-1.5,0-2.8-1.2-2.8-2.8V23.7z
		 M211.3,226.9H43.4V23.7h111.2v48.6v8.6V87c0,1.5,1.2,2.8,2.8,2.8h55.7L211.3,226.9z"/>
	<path class="st11" d="M151.3,140.9c-12.9-17.3-18.4-38.3-14.7-47.4C115.4,95,82.4,137.8,82.4,163s20.5,45.7,45.7,45.7
		s45.7-20.5,45.7-45.7C173.9,152.3,160.8,153.7,151.3,140.9z"/>
</g>
<g class="st0">
	<path class="st10" d="M46.6,10.4H21.3c-6.6,0-11.9,5.3-11.9,11.9v211.5c0,6.6,5.3,11.9,11.9,11.9h25.3c6.6,0,11.9-5.3,11.9-11.9
		V22.3C58.5,15.7,53.2,10.4,46.6,10.4z"/>
	<path class="st10" d="M139.4,10.4h-25.3c-6.6,0-11.9,5.3-11.9,11.9v211.5c0,6.6,5.3,11.9,11.9,11.9h25.3c6.6,0,11.9-5.3,11.9-11.9
		V22.3C151.3,15.7,146,10.4,139.4,10.4z"/>
	<path class="st10" d="M232.2,10.4h-25.3c-6.6,0-11.9,5.3-11.9,11.9v211.5c0,6.6,5.3,11.9,11.9,11.9h25.3c6.6,0,11.9-5.3,11.9-11.9
		V22.3C244,15.7,238.7,10.4,232.2,10.4z"/>
</g>
<g class="st0">
	<path class="st10" d="M244.3,47.9V22.6c0-6.6-5.3-11.9-11.9-11.9H21c-6.6,0-11.9,5.3-11.9,11.9v25.3c0,6.6,5.3,11.9,11.9,11.9
		h211.5C239,59.7,244.3,54.4,244.3,47.9z"/>
	<path class="st10" d="M244.3,140.7v-25.3c0-6.6-5.3-11.9-11.9-11.9H21c-6.6,0-11.9,5.3-11.9,11.9v25.3c0,6.6,5.3,11.9,11.9,11.9
		h211.5C239,152.5,244.3,147.2,244.3,140.7z"/>
	<path class="st10" d="M244.3,233.4v-25.3c0-6.6-5.3-11.9-11.9-11.9H21c-6.6,0-11.9,5.3-11.9,11.9v25.3c0,6.6,5.3,11.9,11.9,11.9
		h211.5C239,245.3,244.3,240,244.3,233.4z"/>
</g>
<path class="st12" d="M140.3,66.5H93V30.6c0-3.6-4.2-5.5-6.9-3.2l-78.5,67c-2,1.7-2,4.7,0,6.4l78.5,67c2.7,2.3,6.9,0.4,6.9-3.2V126
	h47.4c60.5,0,109.6,49.1,109.6,109.6v-59.4C249.9,115.6,200.9,66.5,140.3,66.5z"/>
<path class="st12" d="M234.6,63.1l-44.7-52.5C188.5,9,186.4,8,184.3,8H28.4c-4.1,0-7.4,3.3-7.4,7.4v228.5c0,4.1,3.3,7.4,7.4,7.4
	h200.5c4.1,0,7.4-3.3,7.4-7.4v-176C236.4,66.2,235.7,64.5,234.6,63.1z M140.9,37.8v36.3c0,2.6-2.1,4.7-4.7,4.7h-20.5
	c-2.6,0-4.7-2.1-4.7-4.7V37.8c0-2.6,2.1-4.7,4.7-4.7h20.5C138.8,33.1,140.9,35.2,140.9,37.8z M77.5,228v-57.4H161V228H77.5z
	 M213.5,228h-35.8v-69.5c0-1.7-1.4-3.1-3.1-3.1H63.9c-1.7,0-3.1,1.4-3.1,3.1V228H42.6V27.5H67v57.3c0,3.4,2.8,6.2,6.2,6.2h76
	c3.4,0,6.2-2.8,6.2-6.2V27.5h18.2l41.7,48.2L213.5,228z"/>
<g class="st0">
	<path class="st11" d="M223.5,62.4l-44-51.7c-1.4-1.6-3.4-2.6-5.5-2.6H38.1c-4.1,0-7.3,3.3-7.3,7.3v225.1c0,4.1,3.3,7.3,7.3,7.3
		h179.7c4.1,0,7.3-3.3,7.3-7.3V67.1C225.2,65.4,224.6,63.7,223.5,62.4z M164.8,27.3l39,47.2h-36.6c-1.5,0-2.7-1.2-2.7-2.7V27.3
		H164.8z M52.1,224.9V27.3h95.4v47.2v8.4v5.9c0,1.5,1.2,2.7,2.7,2.7h54.2l-1.7,133.3H52.1z"/>
	<path class="st11" d="M157.7,151.2c-1-1-2.5-1-3.5,0l-14.1,14.1c-1.5,1.5-4.2,0.5-4.2-1.7V98.1c0-1.4-1.1-2.4-2.4-2.4h-16.4
		c-1.4,0-2.4,1.1-2.4,2.4v65c0,2.2-2.6,3.3-4.2,1.7l-13.1-13.1c-1-1-2.5-1-3.5,0l-10.8,10.8c-1,1-1,2.5,0,3.5l40.8,40.8
		c1,1,2.5,1,3.5,0l6.2-6.2l6.4-6.4l28.7-28.7c1-1,1-2.5,0-3.5L157.7,151.2z"/>
</g>
<g class="st0">
	<path class="st10" d="M88.3,41.1L62.4,11.2c-1-1.1-2.8-1.1-3.8,0L32.8,41.1L8.6,69c-1.4,1.6-0.3,4.1,1.9,4.1h28.4v166.5
		c0,5.9,4.8,10.6,10.6,10.6h22c5.9,0,10.6-4.8,10.6-10.6V73.1h28.4c2.1,0,3.3-2.5,1.9-4.1L88.3,41.1z"/>
	<path class="st10" d="M237.5,188.1h-28.4V21.7c0-5.9-4.8-10.6-10.6-10.6h-22c-5.9,0-10.6,4.8-10.6,10.6v166.5h-28.4
		c-2.1,0-3.3,2.5-1.9,4.1l24.2,27.9l25.9,29.9c1,1.1,2.8,1.1,3.8,0l25.9-29.9l24.2-27.9C240.8,190.6,239.7,188.1,237.5,188.1z"/>
</g>
<g class="st0">
	<path class="st10" d="M45.6,133.7c-1.9-0.7-4,0.2-4.7,2.1l-2.7,8.3c-0.6,1.5,0.2,3.3,1.7,3.8l75.7,19.6l0,0.1l73.2-54.7l13.3,16.8
		L224,78.6l-61.3,1.3l16.5,20.9l-65.3,51L45.6,133.7z"/>
	<path class="st10" d="M125.2,177.8l-16.1,5.8v26.2H18.1v-90.9h74.5c3.1-2.8,6.9-11.5,10.8-15.2c1.1-1,0.4-2.9-1.2-2.9H9.9
		c-5.5,0-9.9,4.4-9.9,9.9V218c0,5.5,4.4,9.9,9.9,9.9h107.4c5.5,0,9.9-4.4,9.9-9.9v-39C127.1,178,126.1,177.3,125.2,177.8z"/>
	<path class="st10" d="M246.2,34.7H140c-5.4,0-9.8,4.4-9.8,9.8v53.8c0,1,1.1,1.6,1.9,1.2l16-5.7V52.6H238v89.9h-63.6
		c-3,2.8-6.8,11.4-10.7,15.1c-1.1,1-0.4,2.9,1.1,2.9h81.4c5.4,0,9.8-4.4,9.8-9.8V44.4C256,39,251.6,34.7,246.2,34.7z"/>
</g>
</svg>
