<?xml version="1.0" standalone="no"?><!DOCTYPE svg PUBLIC "-//W3C//DTD SVG 1.1//EN" "http://www.w3.org/Graphics/SVG/1.1/DTD/svg11.dtd"><svg t="1711073906058" class="icon" viewBox="0 0 1024 1024" version="1.1" xmlns="http://www.w3.org/2000/svg" p-id="2558" xmlns:xlink="http://www.w3.org/1999/xlink" width="256" height="256"><path d="M585.142857 109.714286c29.257143-7.314286 51.2 0 73.142857 14.628571l343.771429 336.457143c29.257143 29.257143 29.257143 65.828571 0 95.085714-117.028571 109.714286-226.742857 226.742857-343.771429 336.457143-14.628571 14.628571-36.571429 21.942857-51.2 21.942857-14.628571 0-29.257143-7.314286-43.885714-21.942857-7.314286-14.628571-14.628571-29.257143-14.628571-43.885714V694.857143H292.571429c-43.885714 0-73.142857-29.257143-73.142858-65.828572V387.657143c0-36.571429 29.257143-65.828571 65.828572-65.828572h256v-146.285714c7.314286-29.257143 21.942857-58.514286 43.885714-65.828571z" fill="#484848" p-id="2559"></path><path d="M512 58.514286c0-36.571429-21.942857-58.514286-51.2-58.514286H219.428571C95.085714 0 0 95.085714 0 219.428571v585.142858c0 124.342857 95.085714 219.428571 219.428571 219.428571h241.371429c29.257143 0 51.2-21.942857 51.2-51.2 0-29.257143-21.942857-51.2-51.2-51.2H256c-80.457143 0-146.285714-65.828571-146.285714-146.285714v-512c0-80.457143 65.828571-146.285714 146.285714-146.285715h204.8c29.257143-7.314286 51.2-29.257143 51.2-58.514285z" fill="#484848" p-id="2560"></path></svg>