<?xml version="1.0" encoding="utf-8"?>
<!-- Generator: Adobe Illustrator 24.0.0, SVG Export Plug-In . SVG Version: 6.00 Build 0)  -->
<svg version="1.1" id="图层_1" xmlns="http://www.w3.org/2000/svg" xmlns:xlink="http://www.w3.org/1999/xlink" x="0px" y="0px"
	 viewBox="0 0 28 26" style="enable-background:new 0 0 28 26;" xml:space="preserve">
<style type="text/css">
	.st0{display:none;}
	.st1{display:inline;fill:#FFFFFF;}
	.st2{display:inline;}
	.st3{fill:#D36262;}
	.st4{fill:#506868;}
	.st5{display:inline;fill:#506868;}
	.st6{display:none;fill:#506868;}
	.st7{fill:#FFFFFF;}
	.st8{display:inline;fill:#81D8D1;}
	.st9{display:inline;fill:#FBFDFC;}
	.st10{fill:#FBFDFC;}
	.st11{display:inline;fill:none;stroke:#C8C8C8;stroke-miterlimit:10;}
	.st12{display:inline;fill:#F45353;stroke:#FFFFFF;stroke-miterlimit:10;}
	.st13{display:inline;fill:#61B0B5;}
	.st14{display:none;fill:#EADD51;}
	.st15{fill:#BCBCBC;}
</style>
<g class="st0">
	<path class="st1" d="M34.9,29.2C33,22.5,23.5,4.5,23.5,4.5V-4h0.8c1.1,0,2-0.9,2-2v-0.3c0-1.1-0.9-2-2-2H4.4c-1.1,0-2,0.9-2,2v0.3
		c0,1.1,0.9,2,2,2h0.4v8.5c0,0-11.2,22.3-11.5,24.7C-6.9,31.8-5,34-1.8,34h31.8C34,34,35.6,31.7,34.9,29.2z M18.6,24.8
		c0-1.1,1.9-2.9,1.9-2.9s1.9,1.8,1.9,2.9c0,1.1-0.9,1.9-1.9,1.9C19.5,26.7,18.6,25.8,18.6,24.8z M9,4.5V-4h10.4v8.5l6.5,12.6
		l-22.8,0C6,10.9,9,4.5,9,4.5z"/>
	<path class="st1" d="M17.2,4.5c0.6,0,1.1-0.5,1.1-1.1s-1.1-1.7-1.1-1.7s-1.1,1.1-1.1,1.7S16.6,4.5,17.2,4.5z"/>
	<path class="st1" d="M10.8,13c1,0,1.8-0.8,1.8-1.8s-1.8-2.7-1.8-2.7S9,10.2,9,11.2S9.8,13,10.8,13z"/>
</g>
<g class="st0">
	<g class="st2">
		<path class="st3" d="M1195.1,327c-15.2-53.8-92.1-199-92.1-199V59.3h6.5c9.1,0,16.5-7.4,16.5-16.5v-2.6c0-9.1-7.4-16.5-16.5-16.5
			h-160c-9.1,0-16.5,7.4-16.5,16.5v2.6c0,9.1,7.4,16.5,16.5,16.5h3.5V128c0,0-90.5,179.5-92.5,199c-2.1,21.4,17.4,38.9,38.9,38.9
			h256.8C1177.7,365.9,1200.9,347.7,1195.1,327z M1064,291.4c0-8.6,15.6-23.4,15.6-23.4s15.6,14.8,15.6,23.4c0,8.6-7,15.6-15.6,15.6
			S1064,300,1064,291.4z M986,128V59.3h84V128l52.2,101.8L938.5,230C962.1,179.7,986,128,986,128z"/>
		<path class="st3" d="M1052.8,128c5.1,0,9.2-4.1,9.2-9.2s-9.2-13.8-9.2-13.8s-9.2,8.7-9.2,13.8S1047.7,128,1052.8,128z"/>
		<path class="st3" d="M1000.5,196.3c8,0,14.5-6.5,14.5-14.5s-14.5-21.8-14.5-21.8S986,173.7,986,181.8S992.5,196.3,1000.5,196.3z"
			/>
	</g>
	<g class="st2">
		<path class="st4" d="M1176.7,525h-106.4c-13.4,0-24.3-10.9-24.3-24.3v-94.4c0-3.3,0.7-6.4,1.8-9.3H894.2
			c-13.4,0-24.3,10.9-24.3,24.3v285.4c0,13.4,10.9,24.3,24.3,24.3h260.4c13.4,0,24.3-10.9,24.3-24.3V524.9
			C1178.2,525,1177.5,525,1176.7,525z M1095.9,678.6h-143c-8.3,0-15-6.7-15-15c0-8.3,6.7-15,15-15h143c8.3,0,15,6.7,15,15
			C1110.9,671.9,1104.2,678.6,1095.9,678.6z M1110.9,617.3c0,8.3-6.7,15-15,15h-143c-8.3,0-15-6.7-15-15v0c0-8.3,6.7-15,15-15h143
			C1104.2,602.3,1110.9,609,1110.9,617.3L1110.9,617.3z M1095.9,586h-143c-8.3,0-15-6.7-15-15c0-8.3,6.7-15,15-15h143
			c8.3,0,15,6.7,15,15C1110.9,579.3,1104.2,586,1095.9,586z"/>
		<path class="st4" d="M1085.1,505h88.2L1066,406v79.9C1066,496.4,1074.6,505,1085.1,505z"/>
	</g>
	<g class="st2">
		<path class="st4" d="M1421.1,113.7h-35.6c-9.4,0-17,7.6-17,17v175.9c0,9.6,7.8,17.4,17.4,17.4h35.1c9.6,0,17.4-7.8,17.4-17.4
			V131.1C1438.5,121.5,1430.7,113.7,1421.1,113.7z"/>
		<path class="st4" d="M1387.8,63.5l119.9,62.4c3.9,2.6,9.2,2.1,12.6-1.3l91.5-91.5l0.8,11.5c0.4,5.5,5.2,9.7,10.7,9.3
			c5.5-0.4,9.7-5.2,9.3-10.7l-2.6-36.5c-0.4-5.2-4.6-9.2-9.7-9.3c-0.5,0-0.9,0-1.4,0l-36.5,2.6c-5.5,0.4-9.7,5.2-9.3,10.7v0
			c0.4,5.5,5.2,9.7,10.7,9.3l13.9-1l-86.3,86.3L1397,45.8c-4.9-2.5-10.9-0.6-13.5,4.3v0C1381,54.9,1382.9,60.9,1387.8,63.5z"/>
		<path class="st4" d="M1635.1,74h-35.6c-9.4,0-17,7.6-17,17v212c0,9.6,7.8,17.4,17.4,17.4h35.1c9.6,0,17.4-7.8,17.4-17.4V91.4
			C1652.5,81.8,1644.7,74,1635.1,74z"/>
		<path class="st4" d="M1528.1,150h-35.6c-9.4,0-17,7.6-17,17v139.6c0,9.6,7.8,17.4,17.4,17.4h35.1c9.6,0,17.4-7.8,17.4-17.4V167.4
			C1545.5,157.8,1537.7,150,1528.1,150z"/>
	</g>
	<g class="st2">
		<path class="st4" d="M821.9-213.5h210.3v-33.3c0-16.8-13.6-30.4-30.4-30.4H854v-24.3c0-12.2-9.9-22.1-22.1-22.1h-75.8
			c-12.2,0-22.1,9.9-22.1,22.1v44.7c0,1.6,0.2,3.1,0.5,4.6c-0.3,1.7-0.5,3.5-0.5,5.3v185.6l73.6-143.6
			C810.4-210.2,815.9-213.5,821.9-213.5z"/>
		<path class="st4" d="M1066.3-185.7H836.9c-5.1,0-9.9,2.9-12.2,7.5L751.6-35.7c-4.7,9.1,1.9,20,12.2,20h215.3
			c-1.6,0.5-3.2,0.7-4.9,0.7h4.7c2.4,0,4.6-0.3,6.9-0.7h7.4c5.1,0,9.9-2.9,12.2-7.5l73.1-142.6
			C1083.1-174.9,1076.5-185.7,1066.3-185.7z"/>
	</g>
	<g class="st2">
		<path class="st4" d="M967.3-83.3l-24,24l72,72c6.6,6.6,17.4,6.6,24,0s6.6-17.4,0-24L967.3-83.3z"/>
		<path class="st4" d="M1029-163c-41.4,0-75-33.6-75-75c0-12.8,3.2-24.8,8.8-35.3c-17,13.8-27.8,34.7-27.8,58.3
			c0,2.3,0.1,4.5,0.3,6.7L789.5-62.5c-18.3,18.3-18.3,47.9,0,66.2l0,0c18.3,18.3,47.9,18.3,66.2,0L1000-140.7
			c3.3,0.4,6.6,0.7,10,0.7c28.7,0,53.6-16.1,66.2-39.7C1063.3-169.3,1046.9-163,1029-163z"/>
		<polygon class="st4" points="801,-211 801.2,-211.2 857.6,-154.8 871.4,-168.6 814,-226 811,-235 787,-253 773,-239 787,-217 		
			"/>
	</g>
	<path class="st5" d="M690.8-254.6l-38-6c-2.5-8.8-6-17.3-10.3-25.2l22.5-30.8c3.2-3.2,2.8-8.8-0.9-12.5l-26.5-26.5
		c-3.7-3.7-9.3-4.1-12.5-0.9l-30,21.9c-8.9-5.2-18.6-9.3-28.7-12.2l-5.8-36.9c0-4.5-4.2-8.2-9.5-8.2h-37.5c-5.2,0-9.5,3.7-9.5,8.2
		l-5.8,36.9c-11,3.1-21.4,7.7-31,13.5L437-355.5c-3.2-3.2-8.8-2.8-12.5,0.9l-26.5,26.5c-3.7,3.7-4.1,9.3-0.9,12.5l23.7,32.5
		c-3.7,7.3-6.7,15-9,23l-36.8,5.8c-4.5,0-8.2,4.2-8.2,9.5v37.5c0,5.2,3.7,9.5,8.2,9.5l37,5.8c2.8,9.8,6.8,19.2,11.8,27.9l-22.5,30.8
		c-3.2,3.2-2.8,8.8,0.9,12.5l26.5,26.5c3.7,3.7,9.3,4.1,12.5,0.9l31.5-22.9c8.2,4.5,17,8,26.2,10.6l5.7,36.6c0,4.5,4.2,8.2,9.5,8.2
		h37.5c5.2,0,9.5-3.7,9.5-8.2l5.8-36.9c9.4-2.7,18.3-6.4,26.6-11.1l32.1,23.4c3.2,3.2,8.8,2.8,12.5-0.9l26.5-26.5
		c3.7-3.7,4.1-9.3,0.9-12.5L641.9-166c4.5-8.2,8.2-17,10.8-26.2l38-6c4.5,0,8.2-4.2,8.2-9.5v-37.5
		C699-250.4,695.3-254.6,690.8-254.6z M532.4-176.4c-27.6,0-50-22.4-50-50c0-27.6,22.4-50,50-50c27.6,0,50,22.4,50,50
		C582.3-198.8,560-176.4,532.4-176.4z"/>
	<g class="st2">
		<g>
			<path class="st4" d="M662.7,97.4v32c0,6.3,2.7,12.3,7.5,16.4c25.3,21.6,41.4,53.6,41.6,89.4c0.5,64.9-52.1,118.6-117,119.5
				c-66.3,0.9-120.3-52.5-120.3-118.6c0-34.6,14.8-65.8,38.5-87.5c6.7-6.2,10.7-14.8,10.7-23.9V97.4
				c-50.7,25.5-85.6,77.9-85.6,138.5c-0.1,84.9,69,154.7,153.9,155.3c86.2,0.7,156.3-69,156.3-155.1
				C748.3,175.4,713.5,122.9,662.7,97.4z"/>
			<path class="st4" d="M593.2,192c9.9,0,18-8.1,18-18V74c0-9.9-8.1-18-18-18s-18,8.1-18,18v100C575.2,183.9,583.3,192,593.2,192z"
				/>
		</g>
	</g>
</g>
<g class="st0">
	<path class="st1" d="M33.4,7.6H19.7c-1.7,0-3.1-1.4-3.1-3.1V-7.6c0-0.4,0.1-0.8,0.2-1.2H-2.9C-4.6-8.8-6-7.4-6-5.7v36.6
		c0,1.7,1.4,3.1,3.1,3.1h33.4c1.7,0,3.1-1.4,3.1-3.1V7.6C33.6,7.6,33.5,7.6,33.4,7.6z M23,27.3H4.7c-1.1,0-1.9-0.9-1.9-1.9
		c0-1.1,0.9-1.9,1.9-1.9H23c1.1,0,1.9,0.9,1.9,1.9C24.9,26.4,24.1,27.3,23,27.3z M24.9,19.4c0,1.1-0.9,1.9-1.9,1.9H4.7
		c-1.1,0-1.9-0.9-1.9-1.9v0c0-1.1,0.9-1.9,1.9-1.9H23C24.1,17.5,24.9,18.4,24.9,19.4L24.9,19.4z M23,15.4H4.7
		c-1.1,0-1.9-0.9-1.9-1.9c0-1.1,0.9-1.9,1.9-1.9H23c1.1,0,1.9,0.9,1.9,1.9C24.9,14.5,24.1,15.4,23,15.4z"/>
	<path class="st1" d="M21.6,5h11.3L19.2-7.7V2.6C19.2,3.9,20.3,5,21.6,5z"/>
</g>
<g class="st0">
	<path class="st1" d="M2.5,7h-4.7c-1.2,0-2.2,1-2.2,2.2v23.2c0,1.3,1,2.3,2.3,2.3h4.6c1.3,0,2.3-1,2.3-2.3V9.3C4.8,8,3.7,7,2.5,7z"
		/>
	<path class="st1" d="M-1.9,0.4l15.8,8.2c0.5,0.3,1.2,0.3,1.7-0.2L27.6-3.7l0.1,1.5c0.1,0.7,0.7,1.3,1.4,1.2
		c0.7-0.1,1.3-0.7,1.2-1.4L30-7.1c0-0.7-0.6-1.2-1.3-1.2c-0.1,0-0.1,0-0.2,0L23.7-8C23-8,22.5-7.3,22.5-6.6v0
		c0.1,0.7,0.7,1.3,1.4,1.2l1.8-0.1L14.4,5.9L-0.7-2c-0.6-0.3-1.4-0.1-1.8,0.6v0C-2.8-0.8-2.6,0-1.9,0.4z"/>
	<path class="st1" d="M30.7,1.7H26c-1.2,0-2.2,1-2.2,2.2v28c0,1.3,1,2.3,2.3,2.3h4.6c1.3,0,2.3-1,2.3-2.3V4C33,2.8,32,1.7,30.7,1.7z
		"/>
	<path class="st1" d="M16.6,11.8h-4.7c-1.2,0-2.2,1-2.2,2.2v18.4c0,1.3,1,2.3,2.3,2.3h4.6c1.3,0,2.3-1,2.3-2.3V14.1
		C18.9,12.8,17.8,11.8,16.6,11.8z"/>
</g>
<g class="st0">
	<path class="st1" d="M3.2,6.7H30V2.5c0-2.1-1.7-3.9-3.9-3.9H7.3v-3.1C7.3-6,6-7.3,4.5-7.3h-9.6C-6.7-7.3-8-6-8-4.5v5.7
		c0,0.2,0,0.4,0.1,0.6C-8,2-8,2.3-8,2.5v23.6L1.4,7.8C1.7,7.2,2.4,6.7,3.2,6.7z"/>
	<path class="st1" d="M34.3,10.3H5.1c-0.7,0-1.3,0.4-1.6,0.9l-9.3,18.2c-0.6,1.2,0.2,2.5,1.6,2.5h27.4C23,32,22.8,32,22.6,32h0.6
		c0.3,0,0.6,0,0.9-0.1H25c0.7,0,1.3-0.4,1.6-0.9l9.3-18.2C36.4,11.6,35.6,10.3,34.3,10.3z"/>
</g>
<g class="st0">
	<path class="st1" d="M20.2,19.5L16.7,23l10.4,10.4c1,1,2.5,1,3.5,0s1-2.5,0-3.5L20.2,19.5z"/>
	<path class="st1" d="M29.1,8c-6,0-10.9-4.9-10.9-10.9c0-1.8,0.5-3.6,1.3-5.1c-2.5,2-4,5-4,8.4c0,0.3,0,0.6,0,1L-5.6,22.5
		c-2.6,2.6-2.6,6.9,0,9.6l0,0c2.6,2.6,6.9,2.6,9.6,0l20.9-20.9c0.5,0.1,1,0.1,1.4,0.1c4.2,0,7.8-2.3,9.6-5.8C34.1,7.1,31.7,8,29.1,8
		z"/>
	<polygon class="st1" points="-3.9,1 -3.9,1 4.3,9.2 6.3,7.2 -2,-1.1 -2.5,-2.5 -5.9,-5.1 -8,-3 -5.9,0.2 	"/>
</g>
<path class="st6" d="M34,9.4l-4.8-0.8c-0.3-1.1-0.8-2.2-1.3-3.2l2.9-3.9C31.1,1.2,31,0.4,30.6,0l-3.4-3.4c-0.5-0.5-1.2-0.5-1.6-0.1
	l-3.8,2.8c-1.1-0.7-2.4-1.2-3.6-1.5L17.4-7c0-0.6-0.5-1-1.2-1h-4.8c-0.7,0-1.2,0.5-1.2,1L9.5-2.3c-1.4,0.4-2.7,1-3.9,1.7L1.8-3.4
	C1.3-3.8,0.6-3.7,0.2-3.3l-3.4,3.4c-0.5,0.5-0.5,1.2-0.1,1.6l3,4.1c-0.5,0.9-0.9,1.9-1.1,2.9l-4.7,0.7c-0.6,0-1,0.5-1,1.2v4.8
	c0,0.7,0.5,1.2,1,1.2l4.7,0.7c0.4,1.2,0.9,2.4,1.5,3.5l-2.8,3.9c-0.4,0.4-0.4,1.1,0.1,1.6l3.4,3.4c0.5,0.5,1.2,0.5,1.6,0.1l4-2.9
	c1,0.6,2.2,1,3.3,1.3l0.7,4.6c0,0.6,0.5,1,1.2,1h4.8c0.7,0,1.2-0.5,1.2-1l0.7-4.7c1.2-0.3,2.3-0.8,3.4-1.4l4.1,3
	c0.4,0.4,1.1,0.4,1.6-0.1l3.4-3.4c0.5-0.5,0.5-1.2,0.1-1.6l-3-4.1c0.6-1,1-2.2,1.4-3.3l4.8-0.8c0.6,0,1-0.5,1-1.2v-4.8
	C35,10,34.5,9.4,34,9.4z M13.9,19.4c-3.5,0-6.3-2.8-6.3-6.3c0-3.5,2.8-6.3,6.3-6.3c3.5,0,6.3,2.8,6.3,6.3
	C20.2,16.5,17.4,19.4,13.9,19.4z"/>
<g class="st0">
	<g class="st2">
		<path class="st7" d="M22.9-3.3v4.2c0,0.8,0.4,1.6,1,2.1c3.3,2.8,5.4,7,5.4,11.6c0.1,8.5-6.8,15.4-15.2,15.6
			C5.5,30.4-1.6,23.4-1.6,14.8c0-4.5,1.9-8.6,5-11.4c0.9-0.8,1.4-1.9,1.4-3.1v-3.6C-1.8,0-6.3,6.9-6.3,14.8c0,11.1,9,20.1,20,20.2
			c11.2,0.1,20.4-9,20.4-20.2C34.1,6.9,29.5,0,22.9-3.3z"/>
		<path class="st7" d="M13.9,9c1.3,0,2.3-1,2.3-2.3v-13c0-1.3-1-2.3-2.3-2.3s-2.3,1-2.3,2.3v13C11.5,8,12.6,9,13.9,9z"/>
	</g>
</g>
<g class="st0">
	<path class="st8" d="M-21.7-42.7c-3.3-2.8-8.2-2.3-11,1c-0.9,1.1-1.8,2.2-2.7,3.3c3.8,3.1,7.5,6.3,11.3,9.4c-2,1.1-4.5,1-6.4-0.6
		c-3.4-2.8-6.7-5.6-10.1-8.4c1.7-2,3.4-4.1,5.1-6.1c4.1-4.9,11.3-5.5,16.2-1.5c5.7,4.7,11.3,9.4,17,14.1c-2,1.1-4.5,1-6.4-0.6
		C-13.1-35.5-17.4-39.1-21.7-42.7z"/>
	<path class="st9" d="M-24.5-38.9c1,0.9,2.1,1.7,3.1,2.6c2.4,2,4.8,4,7.2,6c-2,1.2-4.7,1.1-6.6-0.5c-1-0.9-2.1-1.7-3.1-2.6
		c-2.4-2-4.8-4-7.2-6C-29-40.6-26.4-40.5-24.5-38.9z"/>
	<path class="st8" d="M-54.4-33.6c3.3,2.8,8.2,2.3,11-1c0.9-1.1,1.8-2.2,2.7-3.3c-3.8-3.1-7.5-6.3-11.3-9.4c2-1.1,4.5-1,6.4,0.6
		c3.4,2.8,6.7,5.6,10.1,8.4c-1.7,2-3.4,4.1-5.1,6.1c-4.1,4.9-11.3,5.5-16.2,1.5c-5.7-4.7-11.3-9.4-17-14.1c2-1.1,4.5-1,6.4,0.6
		C-63-40.7-58.7-37.1-54.4-33.6z"/>
	<path class="st9" d="M-52.4-37.3c-1-0.9-2.1-1.7-3.1-2.6c-2.4-2-4.8-4-7.2-6c2-1.2,4.7-1.1,6.6,0.5c1,0.9,2.1,1.7,3.1,2.6
		c2.4,2,4.8,4,7.2,6C-47.9-35.6-50.5-35.7-52.4-37.3z"/>
	<g class="st2">
		
			<text transform="matrix(1 0 0 1 -83.1167 -12.7416)" class="st10" style="font-family:'SourceHanSansCN-Bold-GBpc-EUC-H'; font-size:15.4439px;">   H  C  S  C  I</text>
	</g>
	<rect x="12.8" y="-50.1" class="st9" width="1.3" height="44.8"/>
	<g class="st2">
		<g>
			<path class="st10" d="M29.3-29.9c-0.7-1-2.2-2.6-3.4-3.7l1.7-1.3c1.2,1.1,2.8,2.5,3.5,3.6L29.3-29.9z M26.4-18.9
				c0.8-2.2,1.9-5.8,2.6-9l2,1.1c-0.7,3-1.6,6.4-2.4,9L26.4-18.9z M47.2-42.5c-0.1,0.3-0.2,0.6-0.3,0.9c1.5,2.9,3.2,4.6,5.1,5.9
				c-0.5,0.4-1.1,1-1.5,1.6h0.3v14.2c0,1-0.2,1.6-0.9,2c-0.6,0.3-1.7,0.4-3.3,0.4c-0.1-0.6-0.3-1.5-0.6-2c1.1,0.1,2.1,0.1,2.4,0
				c0.3,0,0.4-0.1,0.4-0.4V-24c-1,1-2,2-3,2.9l-0.7-1.2v2.4c0,1-0.2,1.6-0.9,2c-0.6,0.4-1.7,0.4-3.2,0.4c-0.1-0.6-0.3-1.4-0.6-2
				c1.1,0,2,0,2.3,0s0.4-0.1,0.4-0.4v-3.6c-0.9,0.9-1.8,1.8-2.6,2.5l-0.8-1.2h-3v4.3h-2.2v-4.3h-3.6v-2.2h3.6v-2.2h-2.8v-9.2h2.8
				v-2.1h-3.1v-0.8l-1.7,1.3c-0.6-1-2-2.6-3.2-3.7l1.7-1.2c1.2,1,2.6,2.5,3.3,3.5V-40h3.1v-2.5h2.2v2.5h2.9v2.1h-2.9v2.1h2.7v0.1
				c2.5-1.7,4.5-4.3,5.6-7.5L47.2-42.5z M34-32h3.6v-1.8H34V-32z M34-28.4h3.6v-1.8H34V-28.4z M40.1-23.1c0.9-0.7,2-1.7,3.2-2.7V-27
				L42-26.4c-0.3-1-1.1-2.6-1.9-3.8l1.3-0.6c0.7,1,1.4,2.3,1.8,3.3V-32h-2.8v-2h0.3c-0.3-0.5-0.8-1-1.2-1.3v8.9h-2.7v2.2h3.2V-23.1z
				 M50-34.1c-1.6-1.3-2.9-2.9-4.2-5.1c-1.1,2.1-2.6,3.8-4.3,5.1h3.7v11c1-0.8,2.3-2,3.7-3.3v-1l-1.3,0.6c-0.3-1-1.1-2.5-1.8-3.6
				l1.3-0.5c0.6,1,1.4,2.3,1.8,3.3V-32h-3v-2H50z"/>
			<path class="st10" d="M80.3-27.5c-1.6,1.3-3.5,2.7-5.2,3.8c1.7,1.6,3.9,2.8,6.4,3.5c-0.6,0.5-1.3,1.5-1.7,2.3
				c-5.6-1.8-9-5.8-11-11.4h-2.8v8.3l5.4-1.4c-0.1,0.7,0,1.8,0,2.4c-6.3,1.9-7.3,2.3-7.9,2.7c-0.3-0.6-1-1.6-1.4-2
				c0.5-0.4,1.2-1.2,1.2-2.5v-7.4h-2.5c-0.3,4.1-1,8.8-3,12.1c-0.5-0.4-1.7-1.1-2.4-1.4c2.5-4.3,2.8-10.5,2.8-14.9v-8.3h22.1v2.5H61
				v5.8c0,0.6,0,1.1,0,1.7h20.1v2.4h-9.7c0.6,1.5,1.4,2.9,2.3,4c1.5-1.1,3.2-2.5,4.3-3.6L80.3-27.5z M62.9-34.3v-2.4h15.8v2.4H62.9z
				"/>
			<path class="st10" d="M107.3-20.4c0.8,0,1-0.4,1-2.5c0.6,0.4,1.7,0.8,2.4,1c-0.3,3.1-1,3.9-3.2,3.9h-4c-2.8,0-3.5-0.8-3.5-3.5v-9
				H96c-0.5,6.1-1.9,10.6-8.9,13.1c-0.3-0.7-1-1.7-1.6-2.2c6.3-2,7.4-5.8,7.8-10.9H86v-2.5h10.8v-10.2h2.7v10.2h10.7v2.5h-7.5v9
				c0,0.9,0.2,1.1,1.2,1.1H107.3z M92-34.3c-0.8-1.6-2.5-4.1-4-5.9l2.1-1.2c1.5,1.8,3.4,4.2,4.2,5.7L92-34.3z M108.9-40.2
				c-1.4,2.1-3.1,4.4-4.4,5.9l-2.2-1c1.3-1.6,3-4.1,4-6L108.9-40.2z"/>
			<path class="st10" d="M140.5-21.2h-7.6c2.6,0.7,5.4,1.6,7.1,2.3l-2.1,1.5c-1.8-0.9-4.9-2-8-2.8l1.2-1h-6.9l1.6,0.6
				c-2.2,1.4-5.8,2.6-8.7,3.2c-0.4-0.4-1.3-1.4-1.9-1.8c2.7-0.4,5.7-1.2,7.6-2.1h-7.5v-1.8h6.9v-1.3h-5.7v-1.7h5.7v-1.3h-3.9v-7.2
				h19v7.2h-3.8v1.3h5.8v1.7h-5.8v1.3h7V-21.2z M115.5-36.3c1.1-0.3,2.7-0.7,4.3-1.1c-0.6-0.6-1.8-1.5-2.8-2.1l1-0.8h-2.2v-1.8h10.8
				v7.2h-2.3v-1.9c-2.8,0.9-5.6,1.8-7.8,2.4L115.5-36.3z M118.8-40.3c0.9,0.5,1.9,1.2,2.4,1.7l-1.2,1.2c1.3-0.4,2.8-0.8,4.2-1.2
				v-1.7H118.8z M120.7-31.6h5.8v-1.2h-5.8V-31.6z M120.7-28.8h5.8v-1.3h-5.8V-28.8z M124.6-25.9h6.3v-1.3h-6.3V-25.9z M124.6-22.9
				h6.3v-1.3h-6.3V-22.9z M127.7-36.4c1.1-0.3,2.6-0.7,4.2-1.1c-0.7-0.6-1.8-1.5-2.8-2l1-0.8h-2.1v-1.8h11.2v7.2h-2.4v-2.1
				c-2.9,0.9-5.8,1.8-8.1,2.5L127.7-36.4z M134.7-32.8h-5.8v1.2h5.8V-32.8z M134.7-30.1h-5.8v1.3h5.8V-30.1z M130.9-40.3
				c0.9,0.5,1.9,1.2,2.5,1.7l-1,1c1.4-0.4,2.9-0.8,4.4-1.2v-1.5H130.9z"/>
		</g>
	</g>
	<line class="st11" x1="151.8" y1="-41.5" x2="151.8" y2="-15.5"/>
	<text transform="matrix(1 0 0 1 164.6959 -17.2919)" class="st9" style="font-family:'FontName'; font-size:30px;">全自动核酸浓度分析及均一化工作站</text>
</g>
<g class="st0">
	<path class="st8" d="M-41.8-6.6c-3.4-2.8-8.4-2.4-11.2,1C-54-4.5-55-3.3-55.9-2.2C-52,1-48.2,4.2-44.3,7.4c-2,1.2-4.6,1-6.5-0.6
		c-3.4-2.9-6.9-5.7-10.3-8.6c1.7-2.1,3.5-4.2,5.2-6.2c4.1-5,11.5-5.7,16.5-1.5c5.8,4.8,11.6,9.6,17.3,14.4c-2,1.2-4.6,1-6.5-0.6
		C-33,0.7-37.4-3-41.8-6.6z"/>
	<path class="st1" d="M-44.6-2.8c1.1,0.9,2.1,1.8,3.2,2.7C-39,1.9-36.5,4-34.1,6c-2.1,1.2-4.8,1.1-6.7-0.5c-1.1-0.9-2.1-1.8-3.2-2.7
		c-2.5-2.1-4.9-4.1-7.4-6.2C-49.2-4.6-46.6-4.4-44.6-2.8z"/>
	<path class="st8" d="M-75.2,2.7c3.4,2.8,8.4,2.4,11.2-1c0.9-1.1,1.9-2.2,2.8-3.4c-3.9-3.2-7.7-6.4-11.6-9.6c2-1.2,4.6-1,6.5,0.6
		c3.4,2.9,6.9,5.7,10.3,8.6C-57.6-0.1-59.4,2-61.1,4c-4.1,5-11.5,5.7-16.5,1.5C-83.4,0.7-89.2-4.1-95-8.9c2-1.2,4.6-1,6.5,0.6
		C-84-4.7-79.6-1-75.2,2.7z"/>
	<path class="st1" d="M-73.2-1.1c-1.1-0.9-2.1-1.8-3.2-2.7c-2.5-2.1-4.9-4.1-7.4-6.2c2.1-1.2,4.8-1.1,6.7,0.5
		c1.1,0.9,2.1,1.8,3.2,2.7c2.5,2.1,4.9,4.1,7.4,6.2C-68.6,0.6-71.2,0.5-73.2-1.1z"/>
	<g class="st2">
		
			<text transform="matrix(1 0 0 1 -104.6011 23.9648)" class="st7" style="font-family:'SourceHanSansCN-Bold-GBpc-EUC-H'; font-size:15.7897px;">   H  C  S  C  I</text>
	</g>
	<rect x="-6.6" y="-14.2" class="st1" width="1.3" height="45.8"/>
	<g class="st2">
		<g>
			<path class="st7" d="M10.3,6.4C9.6,5.3,8.1,3.7,6.8,2.6l1.7-1.4c1.3,1.1,2.9,2.6,3.6,3.6L10.3,6.4z M7.4,17.7
				c0.8-2.3,1.9-5.9,2.7-9.2l2.1,1.1c-0.7,3.1-1.6,6.5-2.5,9.2L7.4,17.7z M28.7-6.5c-0.1,0.3-0.2,0.6-0.3,0.9
				c1.5,2.9,3.2,4.7,5.2,6.1c-0.5,0.4-1.1,1-1.5,1.6h0.3v14.5c0,1.1-0.2,1.7-0.9,2c-0.7,0.3-1.8,0.4-3.4,0.4
				c-0.1-0.6-0.3-1.5-0.6-2.1c1.1,0.1,2.1,0.1,2.5,0c0.3,0,0.4-0.1,0.4-0.4v-4.1c-1,1-2.1,2.1-3.1,3l-0.7-1.2v2.5
				c0,1.1-0.2,1.7-0.9,2c-0.7,0.4-1.7,0.4-3.3,0.4c-0.1-0.6-0.3-1.4-0.6-2c1.1,0,2.1,0,2.4,0s0.4-0.1,0.4-0.4V13
				c-0.9,0.9-1.8,1.8-2.7,2.6l-0.8-1.2h-3v4.4h-2.3v-4.4h-3.7v-2.3h3.7V9.9H13V0.5h2.9v-2.2h-3.1v-0.8L11-1.2
				C10.3-2.3,8.9-3.9,7.7-5l1.7-1.2c1.2,1.1,2.6,2.5,3.3,3.6v-1.2h3.1v-2.6h2.3v2.6h3v2.2h-3v2.2h2.7v0.1c2.6-1.7,4.6-4.4,5.7-7.6
				L28.7-6.5z M15.1,4.2h3.7V2.4h-3.7V4.2z M15.1,7.9h3.7V6.1h-3.7V7.9z M21.4,13.4c0.9-0.7,2.1-1.8,3.2-2.8V9.4L23.4,10
				c-0.3-1-1.2-2.7-1.9-3.9l1.4-0.6c0.7,1.1,1.4,2.4,1.8,3.3V4.3h-2.9V2.2h0.3c-0.3-0.5-0.8-1-1.3-1.4v9.1h-2.7v2.2h3.3V13.4z
				 M31.5,2.2c-1.6-1.3-3-2.9-4.3-5.3c-1.1,2.1-2.6,3.9-4.4,5.3h3.7v11.2c1-0.8,2.4-2.1,3.7-3.3v-1L29,9.7c-0.3-1-1.1-2.5-1.8-3.7
				l1.4-0.5c0.7,1,1.4,2.4,1.8,3.3V4.3h-3.1V2.2H31.5z"/>
			<path class="st7" d="M62.5,8.9c-1.6,1.3-3.6,2.8-5.3,3.9c1.7,1.7,3.9,2.9,6.6,3.6c-0.6,0.5-1.4,1.6-1.7,2.3
				c-5.7-1.9-9.2-5.9-11.2-11.7h-2.9v8.4l5.5-1.5c-0.1,0.7,0,1.9,0,2.5c-6.4,1.9-7.5,2.3-8.1,2.7c-0.3-0.6-1-1.6-1.4-2.1
				c0.5-0.4,1.2-1.2,1.2-2.5V7h-2.6c-0.3,4.2-1,9-3.1,12.4c-0.5-0.5-1.7-1.2-2.4-1.4C39.7,13.6,40,7.3,40,2.8v-8.5h22.6v2.6H42.7
				v5.9c0,0.6,0,1.1,0,1.8h20.5V7h-9.9c0.6,1.5,1.4,2.9,2.3,4.1c1.6-1.1,3.3-2.6,4.4-3.7L62.5,8.9z M44.7,1.9v-2.4h16.2v2.4H44.7z"
				/>
			<path class="st7" d="M90.1,16.2c0.8,0,1-0.4,1.1-2.5c0.6,0.4,1.7,0.9,2.5,1c-0.3,3.2-1,4-3.3,4h-4.1c-2.9,0-3.6-0.8-3.6-3.6V5.9
				h-4.1c-0.5,6.3-1.9,10.9-9.1,13.4c-0.3-0.7-1-1.7-1.7-2.3c6.5-2.1,7.5-5.9,7.9-11.1h-7.5V3.3h11V-7.1h2.8V3.3h11v2.6h-7.7v9.2
				c0,0.9,0.2,1.1,1.2,1.1H90.1z M74.4,2c-0.8-1.6-2.6-4.1-4.1-6l2.1-1.2C74-3.5,75.8-1,76.7,0.6L74.4,2z M91.7-4.1
				c-1.4,2.2-3.2,4.5-4.5,6.1l-2.3-1C86.3-0.6,88-3.2,89-5.1L91.7-4.1z"/>
			<path class="st7" d="M124,15.4h-7.8c2.7,0.7,5.5,1.7,7.3,2.4l-2.1,1.5c-1.8-0.9-5-2-8.2-2.9l1.2-1.1h-7.1l1.6,0.7
				c-2.3,1.5-5.9,2.6-8.9,3.3c-0.4-0.5-1.3-1.4-1.9-1.8c2.7-0.5,5.8-1.3,7.8-2.1h-7.7v-1.8h7v-1.4h-5.8v-1.7h5.8V9.2h-3.9V1.8h19.4
				v7.3h-3.9v1.3h5.9v1.7h-5.9v1.4h7.2V15.4z M98.5-0.1c1.2-0.3,2.7-0.7,4.4-1.1c-0.7-0.7-1.9-1.5-2.9-2.1l1-0.9h-2.2v-1.9h11v7.3
				h-2.4v-1.9c-2.8,0.9-5.7,1.8-8,2.5L98.5-0.1z M101.8-4.2c0.9,0.5,1.9,1.2,2.5,1.8L103-1.3c1.4-0.4,2.9-0.8,4.3-1.2v-1.7H101.8z
				 M103.8,4.7h5.9V3.5h-5.9V4.7z M103.8,7.6h5.9V6.3h-5.9V7.6z M107.8,10.5h6.5V9.2h-6.5V10.5z M107.8,13.6h6.5v-1.4h-6.5V13.6z
				 M110.9-0.2c1.2-0.3,2.7-0.7,4.3-1.1c-0.7-0.7-1.9-1.5-2.9-2.1l1-0.9h-2.2v-1.9h11.5v7.3h-2.5v-2.1c-2.9,0.9-5.9,1.9-8.3,2.6
				L110.9-0.2z M118.1,3.5h-5.9v1.3h5.9V3.5z M118.1,6.3h-5.9v1.3h5.9V6.3z M114.2-4.2c0.9,0.5,2,1.2,2.5,1.8l-1,1
				c1.4-0.4,2.9-0.8,4.5-1.2v-1.5H114.2z"/>
		</g>
	</g>
</g>
<g class="st0">
	<g class="st2">
		<path class="st7" d="M0.6,21.6c0-1,0.8-1.7,1.7-1.7h12.2c0.5,0,0.9,0.2,1.2,0.5l3.5,3.5c0.3,0.3,0.5,0.8,0.5,1.2v5.1h6.9v-8
			l-6.5-7.5H2.3c-1,0-1.7-0.8-1.7-1.7c0-1,0.8-1.7,1.7-1.7H21c0.5,0,1,0.2,1.3,0.6l7.4,8.6c0.3,0.3,0.4,0.7,0.4,1.1V32
			c0,1-0.8,1.7-1.7,1.7H18.1c-1,0-1.7-0.8-1.7-1.7v-6.2l-2.5-2.5H2.3C1.4,23.3,0.6,22.6,0.6,21.6L0.6,21.6z M0.6,21.6"/>
		<path class="st7" d="M27.4,35.5c-0.6,0-1.2,0.3-1.5,0.9c-0.3,0.5-0.3,1.2,0,1.7c0.3,0.5,0.9,0.9,1.5,0.9c0.6,0,1.2-0.3,1.5-0.9
			c0.3-0.5,0.3-1.2,0-1.7C28.6,35.8,28,35.5,27.4,35.5L27.4,35.5z M27.4,35.5"/>
		<path class="st7" d="M23.1,35.5c-0.6,0-1.2,0.3-1.5,0.9c-0.3,0.5-0.3,1.2,0,1.7c0.3,0.5,0.9,0.9,1.5,0.9c0.6,0,1.2-0.3,1.5-0.9
			c0.3-0.5,0.3-1.2,0-1.7C24.3,35.8,23.7,35.5,23.1,35.5L23.1,35.5z M23.1,35.5"/>
		<path class="st7" d="M18.7,35.5c-0.6,0-1.2,0.3-1.5,0.9c-0.3,0.5-0.3,1.2,0,1.7c0.3,0.5,0.9,0.9,1.5,0.9c0.6,0,1.2-0.3,1.5-0.9
			c0.3-0.5,0.3-1.2,0-1.7C19.9,35.8,19.3,35.5,18.7,35.5L18.7,35.5z M18.7,35.5"/>
		<path class="st7" d="M17.2,39.1c-1,0-1.7,0.8-1.7,1.7c0,1,0.8,1.7,1.7,1.7c1,0,1.7-0.8,1.7-1.7C19,39.9,18.2,39.1,17.2,39.1
			L17.2,39.1z M17.2,39.1"/>
		<path class="st7" d="M14.4,42.4c-1,0-1.7,0.8-1.7,1.7c0,1,0.8,1.7,1.7,1.7c1,0,1.7-0.8,1.7-1.7C16.1,43.2,15.3,42.4,14.4,42.4
			L14.4,42.4z M14.4,42.4"/>
		<path class="st7" d="M23.1,39.3c-1,0-1.7,0.8-1.7,1.7c0,1,0.8,1.7,1.7,1.7c1,0,1.7-0.8,1.7-1.7C24.8,40.1,24,39.3,23.1,39.3
			L23.1,39.3z M23.1,39.3"/>
		<path class="st7" d="M23.1,43.7c-1,0-1.7,0.8-1.7,1.7c0,1,0.8,1.7,1.7,1.7c1,0,1.7-0.8,1.7-1.7C24.8,44.4,24,43.7,23.1,43.7
			L23.1,43.7z M23.1,43.7"/>
		<path class="st7" d="M31.7,42.4c-1,0-1.7,0.8-1.7,1.7c0,1,0.8,1.7,1.7,1.7c1,0,1.7-0.8,1.7-1.7C33.4,43.2,32.7,42.4,31.7,42.4
			L31.7,42.4z M31.7,42.4"/>
		<path class="st7" d="M29.2,39.1c-1,0-1.7,0.8-1.7,1.7c0,1,0.8,1.7,1.7,1.7c1,0,1.7-0.8,1.7-1.7C30.9,39.9,30.1,39.1,29.2,39.1
			L29.2,39.1z M29.2,39.1"/>
	</g>
	<circle class="st12" cx="33.4" cy="13" r="10.2"/>
	<rect x="32.4" y="5.8" class="st1" width="2" height="10.2"/>
	<circle class="st1" cx="33.4" cy="18.1" r="1"/>
</g>
<g class="st0">
	<g class="st2">
		<g>
			<path class="st7" d="M16.2-6.8l0,4.2C24.6-0.2,30.4,7.7,30,16.5c-0.4,8.8-6.7,16.2-15.4,17.8C5.9,36-2.7,31.5-6.3,23.4
				C-9.9,15.4-7.6,6-0.6,0.6c0.7-0.7,1.8-0.7,2.5,0c0.3,0.3,0.5,0.8,0.5,1.2c0,0.5-0.2,0.9-0.5,1.2l0,0c-5.8,4.2-8,11.8-5.3,18.4
				C-0.7,28.1,6.2,32,13.2,31c7.1-1,12.5-6.7,13.2-13.9C27.2,10,22.9,3.4,16.2,1l0,2.6L9.3-1.6L16.2-6.8z M11,10.5
				c1.9,0,3.6,1,4.5,2.6c0.9,1.6,0.9,3.6,0,5.2c-0.9,1.6-2.6,2.6-4.5,2.6c-2.9,0-5.2-2.3-5.2-5.2S8.1,10.5,11,10.5L11,10.5z
				 M11,10.5"/>
		</g>
	</g>
	<circle class="st12" cx="26.8" cy="0.2" r="10.2"/>
	<rect x="25.7" y="-6.9" class="st1" width="2" height="10.2"/>
	<circle class="st1" cx="26.8" cy="5.4" r="1"/>
</g>
<g class="st0">
	<circle class="st13" cx="14" cy="8" r="7"/>
	<path class="st13" d="M19.9,13.7c-1.2,2-3.4,3.3-5.9,3.3c-2.5,0-4.7-1.3-5.9-3.3C3.7,15.9,0.5,20.5,0,26h28
		C27.5,20.5,24.3,15.9,19.9,13.7z"/>
</g>
<g class="st0">
	<path class="st13" d="M23.7,9H4.8c-1.4,0-2.6,1.1-2.6,2.6v11.9c0,1.4,1.1,2.6,2.6,2.6h18.9c1.4,0,2.6-1.1,2.6-2.6V11.6
		C26.3,10.1,25.1,9,23.7,9z M16.8,19.4c0,1.4-1.1,2.6-2.6,2.6c-1.4,0-2.6-1.1-2.6-2.6v-3.9c0-1.4,1.1-2.6,2.6-2.6
		c1.4,0,2.6,1.1,2.6,2.6V19.4z"/>
	<path class="st13" d="M14.7,2.3c3.5,0,6.4,2.4,7.1,5.7h2.1c-0.7-4.5-4.6-8-9.4-8S5.9,3.5,5.1,8h2.4C8.3,4.7,11.2,2.3,14.7,2.3z"/>
</g>
<path class="st14" d="M28.2,22.7l-6.4-10.2L15.4,2.2c-0.3-0.5-1.1-0.5-1.5,0L7.5,12.5L1.1,22.7C0.7,23.3,1.2,24,1.8,24h12.8h12.8
	C28.1,24,28.5,23.3,28.2,22.7z M16.1,20.2c0,0.5-0.4,0.8-0.8,0.8H14c-0.5,0-0.8-0.4-0.8-0.8v-1.3c0-0.5,0.4-0.8,0.8-0.8h1.3
	c0.5,0,0.8,0.4,0.8,0.8V20.2z M16.1,16.2c0,0.5-0.4,0.8-0.8,0.8H14c-0.5,0-0.8-0.4-0.8-0.8V9.8C13.1,9.4,13.5,9,14,9h1.3
	c0.5,0,0.8,0.4,0.8,0.8V16.2z"/>
<circle class="st15" cx="14.4" cy="5.4" r="5.4"/>
<path class="st15" d="M20.6,8.8h-1.2c-1,1.9-2.9,3.3-5.1,3.3s-4.2-1.3-5.1-3.3H8.1c-2.9,0-5.2,2.4-5.2,5.4v5.4c0,3,2.3,5.4,5.2,5.4
	h12.5c2.9,0,5.2-2.4,5.2-5.4v-5.4C25.9,11.2,23.5,8.8,20.6,8.8z"/>
</svg>
