<?xml version="1.0" standalone="no"?><!DOCTYPE svg PUBLIC "-//W3C//DTD SVG 1.1//EN" "http://www.w3.org/Graphics/SVG/1.1/DTD/svg11.dtd"><svg t="1711073488691" class="icon" viewBox="0 0 1024 1024" version="1.1" xmlns="http://www.w3.org/2000/svg" p-id="54376" xmlns:xlink="http://www.w3.org/1999/xlink" width="256" height="256"><path d="M853.333333 164.977778H113.777778c-34.133333 0-56.888889-22.755556-56.888889-56.888889s22.755556-56.888889 56.888889-56.888889h739.555555c34.133333 0 56.888889 22.755556 56.888889 56.888889s-22.755556 56.888889-56.888889 56.888889zM853.333333 961.422222H113.777778c-34.133333 0-56.888889-22.755556-56.888889-56.888889s22.755556-56.888889 56.888889-56.888889h739.555555c34.133333 0 56.888889 22.755556 56.888889 56.888889s-22.755556 56.888889-56.888889 56.888889zM659.911111 267.377778H312.888889c17.066667 62.577778 62.577778 108.088889 119.466667 119.466666l34.133333 17.066667c5.688889 5.688889 11.377778 11.377778 11.377778 17.066667 11.377778-17.066667 28.444444-28.444444 51.2-34.133334 62.577778-11.377778 108.088889-56.888889 130.844444-119.466666zM494.933333 597.333333l-5.688889-11.377777v11.377777l-5.688888 5.688889h-5.688889c-5.688889 5.688889-11.377778 5.688889-22.755556 11.377778-73.955556 22.755556-113.777778 73.955556-113.777778 159.288889v17.066667h290.133334v-17.066667c0-85.333333-39.822222-136.533333-102.4-159.288889h-5.688889-5.688889c-11.377778-5.688889-17.066667-11.377778-22.755556-17.066667z" fill="#484848" p-id="54377"></path><path d="M523.377778 523.377778c0 5.688889 0 5.688889 0 0 0 5.688889 0 5.688889 0 0v5.688889s0 5.688889 5.688889 5.688889c5.688889 5.688889 5.688889 5.688889 11.377777 5.688888 113.777778 28.444444 176.355556 130.844444 176.355556 256v39.822223H796.444444V796.444444c0-119.466667-56.888889-233.244444-153.6-290.133333 96.711111-56.888889 153.6-170.666667 153.6-290.133333v-51.2h-79.644444V227.555556c0 119.466667-62.577778 227.555556-176.355556 256-5.688889 0-17.066667 17.066667-17.066666 39.822222zM164.977778 807.822222v39.822222h79.644444v-39.822222c0-119.466667 62.577778-221.866667 176.355556-256 5.688889 0 11.377778-5.688889 11.377778-5.688889v-5.688889c5.688889-5.688889 5.688889-17.066667 0-22.755555 0-5.688889-5.688889-17.066667-11.377778-17.066667s-5.688889-5.688889-11.377778-5.688889C307.2 449.422222 244.622222 347.022222 244.622222 227.555556V164.977778H164.977778V227.555556c0 119.466667 62.577778 227.555556 159.288889 290.133333-96.711111 56.888889-159.288889 164.977778-159.288889 290.133333z" fill="#484848" p-id="54378"></path></svg>