<?xml version="1.0" encoding="utf-8"?>
<!-- Generator: Adobe Illustrator 24.0.0, SVG Export Plug-In . SVG Version: 6.00 Build 0)  -->
<svg version="1.1" id="图层_1" xmlns="http://www.w3.org/2000/svg" xmlns:xlink="http://www.w3.org/1999/xlink" x="0px" y="0px"
	 viewBox="0 0 256 256" style="enable-background:new 0 0 256 256;" xml:space="preserve">
<style type="text/css">
	.st0{fill:#4C4C4C;}
</style>
<g>
	<g>
		<path class="st0" d="M148.9,149.2l17.8-1.1c4.7-18.8-0.5-31-0.5-31l-18-0.9c-1.6-5.6-3.8-10.9-6.8-15.9l12.1-13.8
			c-10-16.6-22.3-21.6-22.3-21.6L118,76.9c-5-2.9-10.4-5.2-16-6.6l-1.1-18.1c-18.8-4.7-31,0.5-31,0.5l-0.9,17.4
			c-5.6,1.4-10.9,3.5-15.9,6.2L40.4,64.9c0,0-12.3,5-22.3,21.6c3.2,3.6,9.4,7.7,9.8,13c0.1,1.3-6,16.7-6.3,16.7L5.4,117
			c0,0-5.2,12.3-0.5,31l16,1c1.5,6.3,3.9,12.3,7.2,17.9l-10.6,11.6c0,0,5,12.3,21.6,22.3l12-10.6c5.5,3.3,11.5,5.8,17.7,7.3
			l0.8,15.9c0,0,12.3,5.2,31,0.5l1.1-16.6c6.3-1.7,12.3-4.3,17.9-7.7l12.7,11.2c16.6-10,21.6-22.3,21.6-22.3l-11.6-12.8
			C145.3,160.6,147.5,155,148.9,149.2z M85.8,171.7c-21.3,0-38.6-17.3-38.6-38.6c0-21.3,17.3-38.6,38.6-38.6s38.6,17.3,38.6,38.6
			C124.4,154.4,107.2,171.7,85.8,171.7z"/>
		<path class="st0" d="M172.1,67.1c0.8,3.2,2,6.2,3.6,9.1l-5.3,5.9c0,0,2.5,6.2,11,11.3l6.1-5.4c2.8,1.7,5.8,2.9,9,3.7l0.4,8.1
			c0,0,6.2,2.6,15.7,0.2l0.5-8.4c3.2-0.8,6.3-2.2,9.1-3.9l6.5,5.7c8.4-5,11-11.3,11-11.3l-5.9-6.5c1.4-2.6,2.5-5.4,3.2-8.4l9-0.6
			c2.4-9.5-0.2-15.7-0.2-15.7l-9.1-0.4c-0.8-2.8-1.9-5.5-3.4-8l6.1-7c-5-8.4-11.3-10.9-11.3-10.9l-6.8,6.1c-2.5-1.5-5.3-2.6-8.1-3.4
			l-0.6-9.2c-9.5-2.4-15.7,0.2-15.7,0.2l-0.4,8.8c-2.8,0.7-5.5,1.8-8,3.2l-6.4-5.8c0,0-6.2,2.5-11.3,10.9c1.6,1.8,4.8,3.9,4.9,6.6
			c0,0.7-3,8.5-3.2,8.5l-8.2,0.4c0,0-2.6,6.2-0.2,15.7L172.1,67.1z M204.9,39.4c10.8,0,19.6,8.8,19.6,19.5
			c0,10.8-8.8,19.5-19.6,19.5c-10.8,0-19.5-8.8-19.5-19.5C185.4,48.2,194.1,39.4,204.9,39.4z"/>
		<path class="st0" d="M251.9,204.7c2.7-10.9-0.3-18-0.3-18l-10.4-0.5c-0.9-3.2-2.2-6.3-4-9.2l7-8c-5.8-9.6-12.9-12.5-12.9-12.5
			l-7.7,7c-2.9-1.7-6-3-9.3-3.9l-0.7-10.5c-10.9-2.7-18,0.3-18,0.3l-0.5,10.1c-3.3,0.8-6.3,2-9.2,3.6l-7.3-6.6
			c0,0-7.2,2.9-12.9,12.5c1.8,2.1,5.5,4.5,5.7,7.5c0.1,0.8-3.5,9.7-3.6,9.7l-9.4,0.5c0,0-3,7.1-0.3,18l9.3,0.6
			c0.9,3.6,2.3,7.1,4.2,10.4l-6.1,6.8c0,0,2.9,7.2,12.5,12.9l7-6.1c3.2,1.9,6.7,3.3,10.3,4.3l0.5,9.2c0,0,7.1,3,18,0.3l0.6-9.6
			c3.7-1,7.2-2.5,10.4-4.5l7.4,6.5c9.6-5.8,12.5-12.9,12.5-12.9l-6.7-7.4c1.7-3,2.9-6.2,3.7-9.6L251.9,204.7z M204.9,218.5
			c-12.4,0-22.4-10-22.4-22.4c0-12.4,10-22.4,22.4-22.4s22.4,10,22.4,22.4C227.3,208.4,217.3,218.5,204.9,218.5z"/>
	</g>
</g>
</svg>
