<?xml version="1.0" standalone="no"?><!DOCTYPE svg PUBLIC "-//W3C//DTD SVG 1.1//EN" "http://www.w3.org/Graphics/SVG/1.1/DTD/svg11.dtd"><svg t="1711072680939" class="icon" viewBox="0 0 1024 1024" version="1.1" xmlns="http://www.w3.org/2000/svg" p-id="8599" xmlns:xlink="http://www.w3.org/1999/xlink" width="256" height="256"><path d="M526.871369 786.058091H509.875519c-152.962656 0-276.182573-123.219917-276.182573-276.182572S356.912863 233.692946 509.875519 233.692946s276.182573 123.219917 276.182572 276.182573v16.99585c0 25.493776 16.995851 42.489627 38.240664 46.73859 25.493776 0 42.489627-16.995851 46.738589-38.240664V509.875519c0-199.701245-161.460581-361.161826-361.161825-361.161826S148.713693 310.174274 148.713693 509.875519s161.460581 361.161826 361.161826 361.161825h25.493776c25.493776 0 42.489627-21.244813 38.240664-46.738589 0-21.244813-21.244813-38.240664-46.73859-38.240664zM509.875519 127.46888c25.493776 0 42.489627-16.995851 42.489626-42.489627V42.489627c0-25.493776-16.995851-42.489627-42.489626-42.489627s-42.489627 16.995851-42.489627 42.489627v42.489626c0 25.493776 16.995851 42.489627 42.489627 42.489627zM178.456432 237.941909c8.497925 8.497925 21.244813 12.746888 29.742738 12.746888s21.244813-4.248963 29.742739-12.746888c16.995851-16.995851 16.995851-42.489627 0-59.485477l-29.742739-29.742739c-16.995851-16.995851-42.489627-16.995851-59.485477 0s-16.995851 42.489627 0 59.485477l29.742739 29.742739zM84.979253 467.385892H42.489627c-25.493776 0-42.489627 16.995851-42.489627 42.489627s16.995851 42.489627 42.489627 42.489626h42.489626c25.493776 0 42.489627-16.995851 42.489627-42.489626s-16.995851-42.489627-42.489627-42.489627zM178.456432 781.809129l-29.742739 29.742738c-16.995851 16.995851-16.995851 42.489627 0 59.485477 8.497925 8.497925 21.244813 12.746888 29.742739 12.746888s21.244813-4.248963 29.742738-12.746888l29.742739-29.742738c16.995851-16.995851 16.995851-42.489627 0-59.485477s-42.489627-16.995851-59.485477 0zM509.875519 892.282158c-25.493776 0-42.489627 16.995851-42.489627 42.489626v42.489627c0 25.493776 16.995851 42.489627 42.489627 42.489626s42.489627-16.995851 42.489626-42.489626v-42.489627c0-25.493776-16.995851-42.489627-42.489626-42.489626zM934.771784 552.365145h42.489627c25.493776 0 42.489627-16.995851 42.489626-42.489626s-16.995851-42.489627-42.489626-42.489627h-42.489627c-25.493776 0-42.489627 16.995851-42.489626 42.489627s16.995851 42.489627 42.489626 42.489626z" p-id="8600" fill="#484848"></path><path d="M811.551867 250.688797c12.746888 0 21.244813-4.248963 29.742739-12.746888l29.742738-29.742739c16.995851-16.995851 16.995851-42.489627 0-59.485477s-42.489627-16.995851-59.485477 0l-29.742738 29.742739c-16.995851 16.995851-16.995851 42.489627 0 59.485477 8.497925 8.497925 16.995851 12.746888 29.742738 12.746888zM318.672199 382.406639c-16.995851 0-29.742739 12.746888-29.742738 33.991701v118.970955c0 59.485477 46.738589 106.224066 106.224066 106.224066s106.224066-46.738589 106.224066-106.224066V416.39834c0-21.244813-16.995851-33.991701-33.991701-33.991701s-33.991701 12.746888-33.991701 33.991701v118.970955c0 25.493776-16.995851 42.489627-42.489627 42.489626s-42.489627-16.995851-42.489626-42.489626V416.39834c0-21.244813-12.746888-33.991701-29.742739-33.991701zM654.340249 616.099585l76.481328-191.203319c8.497925-16.995851 0-33.991701-16.995851-42.489627-16.995851-4.248963-33.991701 0-42.489626 16.995851l-46.73859 114.721991-46.738589-114.721991c-4.248963-16.995851-25.493776-25.493776-42.489626-16.995851-16.995851 8.497925-25.493776 25.493776-16.995851 42.489627l76.481328 191.203319c4.248963 12.746888 16.995851 21.244813 29.742738 21.244813s25.493776-8.497925 29.742739-21.244813zM815.80083 616.099585c-110.473029 0-203.950207 89.228216-203.950208 203.950208s89.228216 203.950207 203.950208 203.950207S1019.751037 934.771784 1019.751037 820.049793s-89.228216-203.950207-203.950207-203.950208z m0 339.917013c-76.481328 0-135.966805-63.73444-135.966805-135.966805s63.73444-135.966805 135.966805-135.966805 135.966805 63.73444 135.966805 135.966805-59.485477 135.966805-135.966805 135.966805z" p-id="8601" fill="#484848"></path><path d="M900.780083 735.070539c-12.746888-12.746888-33.991701-12.746888-46.738589 0l-38.240664 38.240664-38.240664-38.240664c-12.746888-12.746888-33.991701-12.746888-46.738589 0s-12.746888 33.991701 0 46.73859l38.240664 38.240664-38.240664 38.240663c-12.746888 12.746888-12.746888 33.991701 0 46.73859 4.248963 4.248963 12.746888 8.497925 21.244813 8.497925s16.995851-4.248963 21.244813-8.497925l38.240664-38.240664 38.240664 38.240664c4.248963 4.248963 12.746888 8.497925 21.244813 8.497925s16.995851-4.248963 21.244814-8.497925c12.746888-12.746888 12.746888-33.991701 0-46.73859l-38.240664-38.240663 38.240664-38.240664c21.244813-12.746888 21.244813-33.991701 8.497925-46.73859z" p-id="8602" fill="#484848"></path></svg>