<?xml version="1.0" standalone="no"?><!DOCTYPE svg PUBLIC "-//W3C//DTD SVG 1.1//EN" "http://www.w3.org/Graphics/SVG/1.1/DTD/svg11.dtd"><svg t="1711072669950" class="icon" viewBox="0 0 1024 1024" version="1.1" xmlns="http://www.w3.org/2000/svg" p-id="8376" xmlns:xlink="http://www.w3.org/1999/xlink" width="256" height="256"><path d="M512 874.666667c-200.533333 0-362.666667-162.133333-362.666667-362.666667S311.466667 149.333333 512 149.333333s362.666667 162.133333 362.666667 362.666667-162.133333 362.666667-362.666667 362.666667z m0-640c-153.6 0-277.333333 123.733333-277.333333 277.333333s123.733333 277.333333 277.333333 277.333333 277.333333-123.733333 277.333333-277.333333-123.733333-277.333333-277.333333-277.333333zM512 128c-25.6 0-42.666667-17.066667-42.666667-42.666667V42.666667c0-25.6 17.066667-42.666667 42.666667-42.666667s42.666667 17.066667 42.666667 42.666667v42.666666c0 25.6-17.066667 42.666667-42.666667 42.666667zM209.066667 251.733333c-12.8 0-21.333333-4.266667-29.866667-12.8l-29.866667-29.866666c-17.066667-17.066667-17.066667-42.666667 0-59.733334s42.666667-17.066667 59.733334 0l29.866666 29.866667c17.066667 17.066667 17.066667 42.666667 0 59.733333-8.533333 8.533333-17.066667 12.8-29.866666 12.8zM85.333333 554.666667H42.666667c-25.6 0-42.666667-17.066667-42.666667-42.666667s17.066667-42.666667 42.666667-42.666667h42.666666c25.6 0 42.666667 17.066667 42.666667 42.666667s-17.066667 42.666667-42.666667 42.666667z" p-id="8377" fill="#484848"></path><path d="M179.2 887.466667c-12.8 0-21.333333-4.266667-29.866667-12.8-17.066667-17.066667-17.066667-42.666667 0-59.733334l29.866667-29.866666c17.066667-17.066667 42.666667-17.066667 59.733333 0s17.066667 42.666667 0 59.733333l-29.866666 29.866667c-8.533333 8.533333-17.066667 12.8-29.866667 12.8zM512 1024c-25.6 0-42.666667-17.066667-42.666667-42.666667v-42.666666c0-25.6 17.066667-42.666667 42.666667-42.666667s42.666667 17.066667 42.666667 42.666667v42.666666c0 25.6-17.066667 42.666667-42.666667 42.666667zM844.8 887.466667c-12.8 0-21.333333-4.266667-29.866667-12.8l-29.866666-29.866667c-17.066667-17.066667-17.066667-42.666667 0-59.733333s42.666667-17.066667 59.733333 0l29.866667 29.866666c17.066667 17.066667 17.066667 42.666667 0 59.733334-8.533333 8.533333-21.333333 12.8-29.866667 12.8zM981.333333 554.666667h-42.666666c-25.6 0-42.666667-17.066667-42.666667-42.666667s17.066667-42.666667 42.666667-42.666667h42.666666c25.6 0 42.666667 17.066667 42.666667 42.666667s-17.066667 42.666667-42.666667 42.666667zM814.933333 251.733333c-12.8 0-21.333333-4.266667-29.866666-12.8-17.066667-17.066667-17.066667-42.666667 0-59.733333l29.866666-29.866667c17.066667-17.066667 42.666667-17.066667 59.733334 0s17.066667 42.666667 0 59.733334l-29.866667 29.866666c-8.533333 8.533333-21.333333 12.8-29.866667 12.8zM392.533333 640c-59.733333 0-106.666667-46.933333-106.666666-106.666667V418.133333c4.266667-21.333333 17.066667-34.133333 34.133333-34.133333s34.133333 12.8 34.133333 34.133333v119.466667c0 25.6 17.066667 42.666667 42.666667 42.666667s42.666667-17.066667 42.666667-42.666667V418.133333c-4.266667-21.333333 12.8-34.133333 29.866666-34.133333s34.133333 12.8 34.133334 34.133333v119.466667c0 55.466667-51.2 102.4-110.933334 102.4zM631.466667 640c-12.8 0-25.6-8.533333-29.866667-21.333333L524.8 426.666667c-8.533333-17.066667 0-34.133333 17.066667-42.666667 17.066667-4.266667 34.133333 0 42.666666 17.066667l46.933334 115.2 46.933333-115.2c8.533333-17.066667 25.6-25.6 42.666667-17.066667 17.066667 8.533333 25.6 25.6 17.066666 42.666667l-76.8 192c-8.533333 12.8-17.066667 21.333333-29.866666 21.333333z" p-id="8378" fill="#484848"></path></svg>