<?xml version="1.0" encoding="utf-8"?>
<!-- Generator: Adobe Illustrator 24.0.0, SVG Export Plug-In . SVG Version: 6.00 Build 0)  -->
<svg version="1.1" id="图层_1" xmlns="http://www.w3.org/2000/svg" xmlns:xlink="http://www.w3.org/1999/xlink" x="0px" y="0px"
	 viewBox="0 0 256 256" style="enable-background:new 0 0 256 256;" xml:space="preserve">
<style type="text/css">
	.st0{fill:#484848;}
	.st1{fill:#FF0D1F;}
</style>
<path class="st0" d="M134,212.6c-3.4,4.1-6.9,6.2-10,6.2c-8.9,0-20.6-17.7-26.8-47.9l33.9,0c2.3-7.3,6.1-13.9,10.9-19.5
	c-15.2,0-47.7-0.1-47.7-0.1c-0.8-7.5-1.2-15.5-1.2-23.9c0-8.8,0.5-17.2,1.3-25l59.2,0.1c0.9,7.7,1.3,16.1,1.3,24.9
	c0,4.5-0.1,8.8-0.3,13c5.9-3.8,12.6-6.5,19.8-7.9c0-1.7,0.1-3.3,0.1-5c0-8.5-0.5-16.9-1.3-24.9v0l38.7,0.1
	c2.3,7.9,3.4,16.3,3.4,24.9c0,4.2-0.3,8.3-0.8,12.3c6.6,4,12.3,9.4,16.8,15.7c2.3-9,3.6-18.3,3.6-28C235,66.3,185.2,16.6,124,16.6
	S13.1,66.3,13.1,127.5c0,61.1,49.7,110.9,110.9,110.9c9.9,0,19.6-1.3,28.7-3.8C144.8,229.1,138.3,221.5,134,212.6z M203.9,83.1
	L170.6,83c-2.1-11.3-5-21.7-8.7-30.7c-1.4-3.6-3-6.9-4.6-9.9C177.1,50.1,193.6,64.7,203.9,83.1z M124,36.1
	c8.8,0,20.4,17.4,26.6,46.9L97.5,83C103.6,53.5,115.3,36.1,124,36.1z M36.4,153.2c-2.4-8.1-3.7-16.8-3.7-25.7
	c-0.1-8.8,1.2-17.1,3.4-25.1l38.6,0.1c-0.8,8.1-1.2,16.5-1.2,25c0,8.1,0.4,16.1,1.1,23.9l-38.3-0.1V153.2z M43.7,170.8l33.7,0.1
	c2.1,11.6,5.1,22.4,8.8,31.7c1.4,3.6,3,6.9,4.6,9.9C70.7,204.7,53.9,189.7,43.7,170.8z M86.2,52.3c-3.7,9.1-6.6,19.4-8.7,30.6
	l-33.2-0.1C54.6,64.6,71,50.1,90.8,42.4C89.2,45.4,87.7,48.8,86.2,52.3z"/>
<path class="st1" d="M185.3,143.8c-25.2,0-45.6,20.4-45.6,45.6s20.4,45.6,45.6,45.6s45.6-20.4,45.6-45.6S210.5,143.8,185.3,143.8z
	 M203.8,197.5c2.8,2.8,2.8,7.2,0,10c-2.8,2.8-7.2,2.8-10,0l-8.5-8.5l-8.5,8.5c-2.8,2.8-7.2,2.8-10,0c-2.8-2.8-2.8-7.2,0-10l8.5-8.5
	l-8.5-8.5c-2.8-2.8-2.8-7.2,0-10c2.8-2.8,7.2-2.8,10,0l8.5,8.5l8.5-8.5c2.8-2.8,7.2-2.8,10,0c2.8,2.8,2.8,7.2,0,10l-8.5,8.5
	L203.8,197.5z"/>
</svg>
