<?xml version="1.0" encoding="utf-8"?>
<!-- Generator: Adobe Illustrator 24.0.0, SVG Export Plug-In . SVG Version: 6.00 Build 0)  -->
<svg version="1.1" id="图层_1" xmlns="http://www.w3.org/2000/svg" xmlns:xlink="http://www.w3.org/1999/xlink" x="0px" y="0px"
	 viewBox="0 0 24 24" style="enable-background:new 0 0 24 24;" xml:space="preserve">
<style type="text/css">
	.st0{display:none;fill:#C1C1C1;}
	.st1{fill:#C1C1C1;}
</style>
<path class="st0" d="M12,0C5.4,0,0,5.4,0,12c0,6.6,5.4,12,12,12s12-5.4,12-12C24,5.4,18.6,0,12,0z M9,17.6V5.9l8,5.8L9,17.6z"/>
<polygon class="st1" points="17.9,12 8.9,5.4 8.9,18.6 "/>
<g>
	<path class="st1" d="M0,10.9h2.4c0.3-2.5,1.5-4.7,3.4-6.2l-1.3-2C2,4.6,0.3,7.5,0,10.9z"/>
	<path class="st1" d="M2.4,13.1H0c0.3,3.3,2,6.2,4.4,8.2l1.3-2C3.9,17.8,2.6,15.6,2.4,13.1z"/>
	<path class="st1" d="M18.2,19.4l1.3,2c2.4-2,4.1-4.9,4.4-8.2h-2.4C21.2,15.6,20,17.8,18.2,19.4z"/>
	<path class="st1" d="M21.5,10.9h2.4c-0.3-3.3-2-6.2-4.4-8.2l-1.3,2C20,6.2,21.2,8.4,21.5,10.9z"/>
	<path class="st1" d="M11.9,21.7c-1.6,0-3-0.4-4.3-1l-1.3,2C8,23.5,9.9,24,11.9,24s3.9-0.5,5.6-1.4l-1.3-2
		C15,21.3,13.5,21.7,11.9,21.7z"/>
	<path class="st1" d="M6.3,1.4l1.3,2c1.3-0.6,2.8-1,4.3-1s3,0.4,4.3,1l1.3-2C15.9,0.5,14,0,11.9,0S8,0.5,6.3,1.4z"/>
</g>
</svg>
