<?xml version="1.0" encoding="utf-8"?>
<!-- Generator: Adobe Illustrator 24.0.0, SVG Export Plug-In . SVG Version: 6.00 Build 0)  -->
<svg version="1.1" id="图层_1" xmlns="http://www.w3.org/2000/svg" xmlns:xlink="http://www.w3.org/1999/xlink" x="0px" y="0px"
	 viewBox="0 0 256 256" style="enable-background:new 0 0 256 256;" xml:space="preserve">
<style type="text/css">
	.st0{display:none;}
	.st1{display:inline;fill:#4C4C4C;}
	.st2{display:inline;fill:#273D42;}
	.st3{fill:#5E5E5E;}
</style>
<g class="st0">
	<path class="st1" d="M148.9,149.2l17.8-1.1c4.7-18.8-0.5-31-0.5-31l-18-0.9c-1.6-5.6-3.8-10.9-6.8-15.9l12.1-13.8
		c-10-16.6-22.3-21.6-22.3-21.6L118,76.9c-5-2.9-10.4-5.2-16-6.6l-1.1-18.1c-18.8-4.7-31,0.5-31,0.5l-0.9,17.4
		c-5.6,1.4-10.9,3.5-15.9,6.2L40.4,64.9c0,0-12.3,5-22.3,21.6c3.2,3.6,9.4,7.7,9.8,13c0.1,1.3-6,16.7-6.3,16.7L5.4,117
		c0,0-5.2,12.3-0.5,31l16,1c1.5,6.3,3.9,12.3,7.2,17.9l-10.6,11.6c0,0,5,12.3,21.6,22.3l12-10.6c5.5,3.3,11.5,5.8,17.7,7.3l0.8,15.9
		c0,0,12.3,5.2,31,0.5l1.1-16.6c6.3-1.7,12.3-4.3,17.9-7.7l12.7,11.2c16.6-10,21.6-22.3,21.6-22.3l-11.6-12.8
		C145.3,160.6,147.5,155,148.9,149.2z M85.8,171.7c-21.3,0-38.6-17.3-38.6-38.6c0-21.3,17.3-38.6,38.6-38.6
		c21.3,0,38.6,17.3,38.6,38.6C124.4,154.4,107.2,171.7,85.8,171.7z"/>
	<path class="st1" d="M172.1,67.1c0.8,3.2,2,6.2,3.6,9.1l-5.3,5.9c0,0,2.5,6.2,11,11.3l6.1-5.4c2.8,1.7,5.8,2.9,9,3.7l0.4,8.1
		c0,0,6.2,2.6,15.7,0.2l0.5-8.4c3.2-0.8,6.3-2.2,9.1-3.9l6.5,5.7c8.4-5,11-11.3,11-11.3l-5.9-6.5c1.4-2.6,2.5-5.4,3.2-8.4l9-0.6
		c2.4-9.5-0.2-15.7-0.2-15.7l-9.1-0.4c-0.8-2.8-1.9-5.5-3.4-8l6.1-7c-5-8.4-11.3-10.9-11.3-10.9l-6.8,6.1c-2.5-1.5-5.3-2.6-8.1-3.4
		l-0.6-9.2c-9.5-2.4-15.7,0.2-15.7,0.2l-0.4,8.8c-2.8,0.7-5.5,1.8-8,3.2l-6.4-5.8c0,0-6.2,2.5-11.3,10.9c1.6,1.8,4.8,3.9,4.9,6.6
		c0,0.7-3,8.5-3.2,8.5l-8.2,0.4c0,0-2.6,6.2-0.2,15.7L172.1,67.1z M204.9,39.4c10.8,0,19.6,8.8,19.6,19.5c0,10.8-8.8,19.5-19.6,19.5
		c-10.8,0-19.5-8.8-19.5-19.5C185.4,48.2,194.1,39.4,204.9,39.4z"/>
	<path class="st1" d="M251.9,204.7c2.7-10.9-0.3-18-0.3-18l-10.4-0.5c-0.9-3.2-2.2-6.3-4-9.2l7-8c-5.8-9.6-12.9-12.5-12.9-12.5
		l-7.7,7c-2.9-1.7-6-3-9.3-3.9l-0.7-10.5c-10.9-2.7-18,0.3-18,0.3l-0.5,10.1c-3.3,0.8-6.3,2-9.2,3.6l-7.3-6.6c0,0-7.2,2.9-12.9,12.5
		c1.8,2.1,5.5,4.5,5.7,7.5c0.1,0.8-3.5,9.7-3.6,9.7l-9.4,0.5c0,0-3,7.1-0.3,18l9.3,0.6c0.9,3.6,2.3,7.1,4.2,10.4l-6.1,6.8
		c0,0,2.9,7.2,12.5,12.9l7-6.1c3.2,1.9,6.7,3.3,10.3,4.3l0.5,9.2c0,0,7.1,3,18,0.3l0.6-9.6c3.7-1,7.2-2.5,10.4-4.5l7.4,6.5
		c9.6-5.8,12.5-12.9,12.5-12.9l-6.7-7.4c1.7-3,2.9-6.2,3.7-9.6L251.9,204.7z M204.9,218.5c-12.4,0-22.4-10-22.4-22.4
		c0-12.4,10-22.4,22.4-22.4s22.4,10,22.4,22.4C227.3,208.4,217.3,218.5,204.9,218.5z"/>
</g>
<g class="st0">
	<path class="st2" d="M8,57.3h228.6c4.5,0,8.2-3.8,8.2-8.5V8.5c0-4.7-3.7-8.5-8.2-8.5H8C3.5,0-0.2,3.8-0.2,8.5v40.3
		C-0.2,53.5,3.5,57.3,8,57.3z M18.4,14.6h53.2v27.9H18.4V14.6z"/>
	<path class="st2" d="M254.5,201.1c3-12.1-0.3-20-0.3-20l-11.6-0.6c-1-3.6-2.5-7-4.4-10.2l7.8-8.9c-6.4-10.7-14.4-14-14.4-14
		l-8.6,7.8c-3.2-1.9-6.7-3.3-10.4-4.3l-0.7-11.7c-12.1-3-20,0.3-20,0.3l-0.5,11.2c-3.6,0.9-7.1,2.3-10.2,4l-8.2-7.4
		c0,0-8,3.2-14.4,14c2,2.3,6.1,5,6.3,8.4c0.1,0.8-3.9,10.8-4,10.8l-10.4,0.5c0,0-3.3,7.9-0.3,20l10.3,0.7c1,4.1,2.5,7.9,4.6,11.5
		l-6.8,7.5c0,0,3.2,8,14,14.4l7.8-6.8c3.6,2.1,7.4,3.7,11.4,4.7l0.5,10.3c0,0,7.9,3.3,20,0.3l0.7-10.7c4.1-1.1,8-2.8,11.5-5l8.2,7.2
		c10.7-6.4,14-14.4,14-14.4l-7.5-8.3c1.8-3.3,3.2-6.9,4.1-10.7L254.5,201.1z M202.3,216.4c-13.8,0-24.9-11.2-24.9-24.9
		c0-13.8,11.2-24.9,24.9-24.9s24.9,11.2,24.9,24.9C227.2,205.2,216.1,216.4,202.3,216.4z"/>
	<path class="st2" d="M7.9,156.7h124.3c13.2-23.1,38-38.7,66.5-38.7c17.3,0,33.2,5.7,46,15.3v-25.5c0-4.7-3.7-8.5-8.2-8.5H7.9
		c-4.5,0-8.2,3.8-8.2,8.5v40.3C-0.3,152.8,3.4,156.7,7.9,156.7z M18.3,113.9h53.2v27.9H18.3V113.9z"/>
	<path class="st2" d="M122.3,198.7H7.9c-4.5,0-8.2,3.8-8.2,8.5v40.3c0,4.7,3.7,8.5,8.2,8.5h145.9
		C135.8,242.9,123.7,222.2,122.3,198.7z M71.5,241.2H18.3v-27.9h53.2V241.2z"/>
</g>
<g class="st0">
	<circle class="st2" cx="123.7" cy="51.1" r="48.1"/>
	<path class="st2" d="M135,193c0-40.2,29.6-72.7,66.1-72.7c10.8,0,21.1,2.9,30.1,7.9c-11-19.1-30.4-31.9-52.5-31.9h-19.7
		c-8.6,11-21.3,18-35.6,18c-14.2,0-27-7-35.6-18H63.4c-30.7,0-55.6,27.4-55.6,61.2v47c0,26.5,19.5,48,43.6,48h111.7
		C146.1,239.4,135,217.7,135,193z"/>
	<path class="st2" d="M246.7,200.4c3-11.9-0.3-19.7-0.3-19.7l-11.4-0.6c-1-3.5-2.4-6.9-4.3-10.1l7.7-8.7
		c-6.3-10.5-14.1-13.7-14.1-13.7l-8.5,7.7c-3.2-1.9-6.6-3.3-10.2-4.2l-0.7-11.5c-11.9-3-19.7,0.3-19.7,0.3l-0.5,11
		c-3.6,0.9-6.9,2.2-10.1,4l-8-7.3c0,0-7.8,3.2-14.1,13.7c2,2.3,6,4.9,6.2,8.3c0.1,0.8-3.8,10.6-4,10.6l-10.3,0.5
		c0,0-3.3,7.8-0.3,19.7l10.2,0.6c0.9,4,2.5,7.8,4.5,11.3l-6.7,7.4c0,0,3.2,7.8,13.7,14.1l7.6-6.7c3.5,2.1,7.3,3.7,11.2,4.6l0.5,10.1
		c0,0,7.8,3.3,19.7,0.3l0.7-10.5c4-1.1,7.8-2.7,11.3-4.9l8.1,7.1c10.5-6.3,13.7-14.1,13.7-14.1l-7.4-8.1c1.8-3.3,3.2-6.8,4.1-10.5
		L246.7,200.4z M195.4,215.4c-13.5,0-24.5-11-24.5-24.5c0-13.5,11-24.5,24.5-24.5c13.5,0,24.5,11,24.5,24.5
		C219.9,204.4,209,215.4,195.4,215.4z"/>
</g>
<g>
	<path class="st3" d="M128.4,2.3L21.4,41.6v104.3c0,59.1,77.2,107.1,107.1,107.1c29.8,0,107.1-47.9,107.1-107.1V41.6L128.4,2.3z
		 M218.2,143c0,49.6-64.7,89.7-89.7,89.7c-25,0-89.7-40.2-89.7-89.7V55.6l89.7-33l89.7,33V143z"/>
	<polygon class="st3" points="126.2,67 118.8,79.5 92.7,122.4 51,122.4 51,141.4 81.1,141.4 105.4,141.4 124.8,106.7 145.3,145.8 
		145,145.9 154.5,163.5 201.4,129.3 189.4,112.3 164,131.5 	"/>
</g>
</svg>
