<?xml version="1.0" standalone="no"?><!DOCTYPE svg PUBLIC "-//W3C//DTD SVG 1.1//EN" "http://www.w3.org/Graphics/SVG/1.1/DTD/svg11.dtd"><svg t="1711073938470" class="icon" viewBox="0 0 1024 1024" version="1.1" xmlns="http://www.w3.org/2000/svg" p-id="3409" xmlns:xlink="http://www.w3.org/1999/xlink" width="256" height="256"><path d="M328.644031 128.637521v166.672092h-200.00651v600.019532h600.019532v-166.672092h200.00651v-600.019532h-600.019532z m533.350695 533.350695h-133.337673V533.350695a33.334418 33.334418 0 1 0-66.668837 0v295.309613h-466.681858v-466.681858H533.350695a33.334418 33.334418 0 1 0 0-66.668837h-138.037827v-100.003255h466.681858v466.681858z" p-id="3410" fill="#484848"></path><path d="M395.312868 533.350695a33.334418 33.334418 0 1 0-66.668837 0v166.672092c0 0.666688 2.666753 1.166705 2.700088 1.766724 0.200007 3.70012 1.933396 7.433575 3.366777 10.867021 3.400111 8.266936 10.533676 14.767147 18.767277 18.167258 1.13337 0.466682 2.666753-1.966731 3.833458-1.633387 2.933429 0.83336 6.133533-0.533351 9.333637-0.53335h166.672093a33.334418 33.334418 0 1 0 0-66.668837h-86.269475l176.439076-174.072333c13.033758-13.033758 13.033758-32.934405 0-45.968163s-36.467854-12.433738-49.468276 0.600019l-178.705818 176.939093V533.350695z" p-id="3411" fill="#484848"></path></svg>