<?xml version="1.0" standalone="no"?><!DOCTYPE svg PUBLIC "-//W3C//DTD SVG 1.1//EN" "http://www.w3.org/Graphics/SVG/1.1/DTD/svg11.dtd"><svg t="1711073044783" class="icon" viewBox="0 0 1024 1024" version="1.1" xmlns="http://www.w3.org/2000/svg" p-id="24930" xmlns:xlink="http://www.w3.org/1999/xlink" width="256" height="256"><path d="M469.33 768h85.33v-85.33h-85.33V768zM512 85.33C276.48 85.33 85.33 276.48 85.33 512S276.48 938.67 512 938.67 938.67 747.52 938.67 512 747.52 85.33 512 85.33z m0 768c-188.16 0-341.33-153.17-341.33-341.33S323.84 170.67 512 170.67 853.33 323.84 853.33 512 700.16 853.33 512 853.33zM512 256c-94.29 0-170.67 76.37-170.67 170.67h85.33c0-46.93 38.4-85.33 85.33-85.33s85.33 38.4 85.33 85.33c0 85.33-128 74.67-128 213.33h85.33c0-96 128-106.67 128-213.33C682.67 332.37 606.29 256 512 256z" p-id="24931" fill="#484848"></path></svg>